<?xml version="1.0" standalone="no"?>
<!DOCTYPE svg PUBLIC "-//W3C//DTD SVG 1.1//EN" "http://www.w3.org/Graphics/SVG/1.1/DTD/svg11.dtd" >
<svg>
<metadata>
Created by FontForge 20090914 at Fri Feb 24 05:03:02 2012
 By root
&#194;&#169; Lauren Thompson, 2009, 2010, 2011. All rights reserved.
</metadata>
<defs>
<font id="Nymph'sHandwriting" horiz-adv-x="498" >
  <font-face 
    font-family="Nymph's Handwriting"
    font-weight="400"
    font-stretch="normal"
    units-per-em="1000"
    panose-1="3 8 6 2 4 2 2 2 2 4"
    ascent="800"
    descent="-200"
    x-height="365"
    cap-height="732"
    bbox="-210 -367 1258 997"
    underline-thickness="150"
    underline-position="-142"
    unicode-range="U+0020-U+F002"
  />
<missing-glyph horiz-adv-x="458" 
d="M213 376q0 -6 4 -15.5t41 -17.5q-37 -13 -98 -51q-21 -12 -38 -12q-42 0 -82 59q23 12 32.5 17.5t9.5 10.5v206q0 24 -39 36q100 47 143 77q21 -2 27 -59v-2q15 7 27 14l135 47q8 -47 19 -87q12 -39 23 -112q1 -14 1 -28q0 -61 -42 -127q-50 -78 -144 -162q59 110 59 204
q0 26 -3 51q-21 115 -35 146q-40 -31 -40 -63v-132z" />
    <glyph glyph-name=".notdef" horiz-adv-x="458" 
d="M213 376q0 -6 4 -15.5t41 -17.5q-37 -13 -98 -51q-21 -12 -38 -12q-42 0 -82 59q23 12 32.5 17.5t9.5 10.5v206q0 24 -39 36q100 47 143 77q21 -2 27 -59v-2q15 7 27 14l135 47q8 -47 19 -87q12 -39 23 -112q1 -14 1 -28q0 -61 -42 -127q-50 -78 -144 -162q59 110 59 204
q0 26 -3 51q-21 115 -35 146q-40 -31 -40 -63v-132z" />
    <glyph glyph-name=".null" horiz-adv-x="55" 
 />
    <glyph glyph-name="nonmarkingreturn" horiz-adv-x="224" 
 />
    <glyph glyph-name="space" unicode=" " horiz-adv-x="238" 
 />
    <glyph glyph-name="space" unicode="&#xa0;" horiz-adv-x="238" 
 />
    <glyph glyph-name="exclam" unicode="!" horiz-adv-x="216" 
d="M55 228q-32 271 -32 405q0 43 1 75v6q0 52 29 55h-4q0 3 2 3q3 0 8 -4q4 1 9 1q31 0 31 -51v-17q-3 -42 -3 -99q0 -130 29 -376q-4 -32 -29 -32h-2q-38 5 -39 34zM102 113q34 0 40 -39v-16q0 -45 -17 -45q-12 -5 -24 -5q-26 0 -35 22q-7 17 -7 41v8q0 26 30 33q7 1 13 1z
" />
    <glyph glyph-name="quotedbl" unicode="&#x22;" horiz-adv-x="287" 
d="M94 541h-5q-28 0 -33 25l-16 185q2 32 40 34h7q34 0 36 -29l12 -184v-3q-1 -25 -41 -28zM206 539h-5q-28 0 -33 25l-16 185q4 31 40 34h7q35 0 36 -29l12 -185v-2q0 -26 -41 -28z" />
    <glyph glyph-name="numbersign" unicode="#" horiz-adv-x="700" 
d="M227 337q5 57 7 118q-21 -2 -37 -2h-78q-25 0 -80 3q-23 0 -30 31q-1 4 -2 7v9q0 22 16 23h131l82 2v47q0 61 -3 122q3 18 20 18q3 0 8 -1q2 0 5 -1q29 -7 31 -30q4 -65 4 -130q1 -11 1 -22q68 4 132 10q0 8 -1 18l-2 19q-5 55 -12 113q0 18 22 18h9q28 -3 32 -24
q9 -60 15 -120q1 -9 1 -17q105 13 170 32h2q17 0 22 -29v-3q1 -5 1 -9q0 -22 -13 -28q-64 -22 -176 -37q4 -62 4 -120q90 11 141 26h2q16 0 20 -29v-11q0 -22 -14 -29q-53 -20 -151 -32q-4 -93 -19 -175q-5 -14 -26 -14h-6q-26 2 -27 17l-1 3q10 80 13 161q-73 -6 -152 -8
q-12 -108 -36 -201q-6 -12 -21 -12q-4 0 -9 1l-2 1q-28 5 -28 23v3q18 90 28 183h-22q-18 0 -39 1q-39 0 -108 4q-22 2 -27 33q-1 5 -1 8v6q0 23 17 25q66 -3 101 -3h21q32 0 65 2zM301 456q-1 -61 -5 -119q74 4 146 10q0 59 -4 119q-66 -6 -137 -10z" />
    <glyph glyph-name="dollar" unicode="$" horiz-adv-x="433" 
d="M162 413q-97 63 -106 149v15q0 75 54 104q24 14 49 20q0 13 1 25v7q0 51 25 54h1q2 0 5 -1q4 1 8 1q27 0 27 -50q0 -9 -1 -18v-16q62 -10 79 -97q1 -3 1 -8v-3q0 -24 -27 -31q-4 -1 -7 -1h-11q-22 3 -23 24q-5 23 -13 37v-10q0 -53 1 -150q9 -5 19 -9q105 -51 140 -108
q26 -41 29 -85v-14q0 -14 -1 -29q-12 -72 -82 -111q-36 -21 -79 -27q-9 -1 -19 -1l2 -57q-3 -29 -25 -30h-4q-32 5 -33 32l-2 57q-4 1 -9 2q-101 17 -141 182q0 31 25 40q6 3 11 4h12q14 -2 27 -13q24 -122 73 -147q-4 152 -6 263zM231 142q6 0 11 1q32 4 60 21q42 25 42 79
q0 5 -1 12q0 6 -1 11q-22 74 -116 112q2 -101 5 -236zM158 638q-29 -14 -29 -53v-7q0 -3 1 -7q4 -32 30 -59q-2 78 -2 126z" />
    <glyph glyph-name="percent" unicode="%" horiz-adv-x="856" 
d="M554 781q12 17 31 17q8 0 18 -3q21 -10 21 -32q0 -10 -3 -22l-58 -138q4 5 52 5q87 0 158 -106q63 -92 63 -168q0 -10 -1 -20q-10 -83 -63 -131q-38 -35 -94 -35q-24 0 -51 6q-92 22 -111 116q-6 29 -6 56q0 54 26 91q38 52 80 66.5t65 16.5q-27 34 -57 34q-7 0 -10 -1
q-23 -28 -47 -28h-5q-29 5 -32 23l-97 -218l-133 -338q-11 -18 -27 -18q-10 0 -21 7q-21 14 -21 38q0 9 3 20l161 402zM196 656q15 15 28 15q16 0 25 -20q8 -13 8 -26q0 -19 -9 -26q66 -20 102 -88q23 -44 23 -84q0 -24 -8 -46q-21 -62 -62 -83q-31 -17 -106 -17
q-25 0 -54 2q-123 7 -123 158q0 149 176 215zM147 540q-51 -23 -56 -111q-1 -4 -1 -6q0 -74 101 -74h12q97 4 97 69q0 12 -3 28q-23 93 -150 94zM723 453q0 -28 -44 -28q-56 -4 -80 -38q-18 -28 -18 -67q0 -12 2 -25q6 -54 60 -70q19 -6 36 -6q29 0 49 18q33 29 37 86v7
q0 56 -42 123z" />
    <glyph glyph-name="ampersand" unicode="&#x26;" horiz-adv-x="560" 
d="M243 552q-4 19 -4 56q0 13 1 26q0 22 24 28l4 1q6 1 10 1q22 0 28 -19v-29q0 -61 11 -101q0 1 1 1l1 -1q14 -6 20 -15q3 -6 3 -13q0 -9 -6 -18q-5 -7 -12 -13q-9 -4 -20 -4q-8 0 -16 3q-75 38 -99 38h-4q-5 -1 -7 -2l-1 -1l1 -1q120 -104 196 -107q32 -8 32 -27v-2
q-2 -14 -2 -28q0 -8 -3 -13q-4 -7 -10 -11q-10 -6 -29 -6h-18q-36 0 -152 -71l-5 -3q-84 -53 -84 -99q0 -15 9 -30q84 -93 183 -93q56 0 118 31q54 33 54 87q0 9 -2 22q3 14 13 21q7 3 17 3q5 0 11 -1q18 -3 28 -18q6 -11 6 -28q-11 -99 -53 -124q-18 -16 -37 -29
q-50 -31 -108 -41q-16 -1 -30 -1h-5q1 -40 11 -80v-3q0 -19 -24 -25h-11q-22 0 -29 19q-15 53 -15 97q-115 22 -203 139q-16 26 -16 52q0 55 68 116q42 36 83 62q55 34 83 41q-105 60 -144 121q-16 27 -16 49q0 30 29 50q17 10 42 10q38 0 78 -17z" />
    <glyph glyph-name="quotesingle" unicode="'" horiz-adv-x="135" 
d="M74 541h-5q-28 0 -33 25l-16 185q2 32 40 34h7q34 0 36 -29l12 -184v-3q-1 -25 -41 -28z" />
    <glyph glyph-name="parenleft" unicode="(" horiz-adv-x="246" 
d="M179 705q9 4 16 4q9 0 19 -6q12 -8 12 -24q0 -7 -3 -14q-137 -129 -137 -407v-16q4 -204 139 -367q-11 -37 -36 -37q-9 0 -16 2q-140 143 -153 403q0 351 159 462z" />
    <glyph glyph-name="parenright" unicode=")" horiz-adv-x="246" 
d="M226 243q-13 -260 -153 -403q-7 -2 -16 -2q-25 0 -36 37q135 163 139 367v16q0 278 -137 407q-3 7 -3 14q0 16 12 24q10 6 19 6q7 0 16 -4q159 -111 159 -462z" />
    <glyph glyph-name="asterisk" unicode="*" horiz-adv-x="431" 
d="M160 605q-3 138 -25 157v1q-1 4 -1 6q0 26 22 32h-3l7 1h1q21 0 38 -46q9 -28 14 -136q96 85 110 133l1 1q13 13 25 13q8 0 16 -5h1l5 -3q10 -8 10 -20q0 -13 -13 -29q-25 -66 -132 -155q76 -48 158 -94l5 -4q12 -10 12 -23q0 -10 -5 -19q-2 -1 -3 -3l-6 -6v-1
q-7 -6 -17 -6q-12 0 -29 10q-63 33 -137 81q-2 -51 -3 -94v-1q0 -38 -19 -45q-3 0 -9 -1v-1h-4q-19 0 -23 27l-1 5l6 117l-69 -45q-21 -17 -37 -17q-8 0 -13 2l-1 1q-2 1 -6 4q-1 0 -1 1q-14 10 -14 21q0 10 8 20l5 4l90 63l-83 65q-18 16 -18 31q0 9 6 18l3 4l3 3q8 6 16 6
q9 0 21 -8h2q34 -27 87 -65z" />
    <glyph glyph-name="plus" unicode="+" horiz-adv-x="492" 
d="M212 278q-73 1 -149 7q-43 5 -43 38v7q0 2 1 4q6 29 42 29h2q53 -4 113 -4q17 0 32 1q-3 69 -11 150v6q3 35 37 35h5q3 0 7 -1q30 -5 33 -49q9 -71 11 -139q65 3 139 11l6 -1q35 -3 35 -37v-5q-1 -3 -1 -5v-1q-7 -31 -50 -34q-65 -8 -128 -10q-1 -67 -7 -138
q-5 -43 -38 -43h-8l-1 1q-30 7 -30 42v2q3 53 3 114v20z" />
    <glyph glyph-name="comma" unicode="," horiz-adv-x="146" 
d="M36 -183q-16 19 -16 35q0 19 17 42q21 29 21 78q0 18 -3 38q-2 17 -2 30q0 34 21 34q7 0 16 -3q36 -18 36 -97v-15q-4 -93 -90 -142z" />
    <glyph glyph-name="hyphen" unicode="-" horiz-adv-x="305" 
d="M284 239q1 -6 1 -10q0 -30 -23 -37q-84 -24 -167 -24q-20 0 -40 1q-26 0 -33 32q-1 4 -1 7q-1 7 -1 13q0 28 19 34l4 1q21 -1 41 -1q97 0 168 19q3 1 6 1q20 0 26 -29v-7z" />
    <glyph glyph-name="hyphen" unicode="&#xad;" horiz-adv-x="305" 
d="M284 239q1 -6 1 -10q0 -30 -23 -37q-84 -24 -167 -24q-20 0 -40 1q-26 0 -33 32q-1 4 -1 7q-1 7 -1 13q0 28 19 34l4 1q21 -1 41 -1q97 0 168 19q3 1 6 1q20 0 26 -29v-7z" />
    <glyph glyph-name="period" unicode="." horiz-adv-x="123" 
d="M63 79q32 0 39 -37q1 -8 1 -16q0 -43 -15 -43q-15 -5 -26 -5q-25 0 -33 19q-9 19 -9 42v9q0 25 30 30q7 1 13 1z" />
    <glyph glyph-name="slash" unicode="/" horiz-adv-x="419" 
d="M395 816l4 -2q14 -7 18 -19q2 -5 2 -11v-5q-79 -268 -244 -597l-23 -44l-85 -160q-8 -13 -20 -16q-4 -1 -9 -1q-7 0 -15 3q-4 1 -6 2q-12 7 -16 17q-1 3 -1 7q0 6 3 13l78 150l13 26q161 319 264 624l1 3q5 10 15 12q3 1 7 1q6 0 14 -3z" />
    <glyph glyph-name="zero" unicode="0" horiz-adv-x="443" 
d="M200 736q83 0 164 -145q70 -126 70 -278q0 -17 -1 -34q-8 -174 -82 -239q-62 -62 -153 -62h-12q-94 5 -135.5 93t-41.5 202q0 115 45 236t105 176v4q0 37 41 47zM89 279v-21q0 -98 42 -161q26 -37 63 -37q28 0 59 15q102 42 104 215v5q0 172 -90 300q-9 -2 -23 -2
q-29 0 -47 15q-14 0 -58.5 -108t-49.5 -221z" />
    <glyph glyph-name="one" unicode="1" horiz-adv-x="456" 
d="M267 745q9 10 21 10q9 0 17 -4q16 -10 16 -35q0 -10 -2 -21q-42 -421 -42 -681q-7 -31 -37 -32h-3q-28 0 -28 42q0 274 37 571l-49 -58q-10 -7 -21 -7q-15 0 -27 10q-14 11 -14 24q0 11 9 25q80 120 123 156z" />
    <glyph glyph-name="two" unicode="2" horiz-adv-x="447" 
d="M161 748q14 2 28 2q56 0 90 -41q43 -51 48 -132v-21q0 -72 -27 -153q-32 -93 -88 -168t-87 -154q69 5 114 5t161 -15q24 -15 24 -40v-8q-4 -26 -22 -26q-3 0 -6 1q-105 17 -172 17q-17 0 -32 -1q-72 -6 -130 -14q-8 -2 -14 -2q-13 0 -19 10q-6 9 -6 19q0 8 4 15
q43 114 114.5 215.5t96.5 184.5q21 71 21 118q0 9 -1 17q-4 51 -31 81q-15 16 -37 16q-17 0 -40 -12q-48 -24 -49 -68q-6 -20 -27 -20q-7 0 -13 2q-25 4 -25 31q0 9 3 22q45 106 122 119z" />
    <glyph glyph-name="three" unicode="3" horiz-adv-x="446" 
d="M287 742q12 0 27.5 -10t15.5 -40q0 -123 -68 -258q178 -13 178 -134q1 -16 1 -29q0 -149 -68 -216q-66 -66 -137 -66q-13 0 -27 1q-132 9 -192 87q-1 9 -1 16q0 16 8 28q7 11 17 11q6 0 13 -4q85 -63 178 -63q2 0 4 1q52 2 96 58q38 50 38 121q0 16 -1 34q0 77 -134 77
q-31 0 -57 -31q-21 0 -34 13.5t-13 25.5q0 32 54 80q58 100 75 205q-72 -24 -206 -120q-11 -8 -21 -8t-19 9q-10 13 -10 23q0 8 4 15q98 115 279 174z" />
    <glyph glyph-name="four" unicode="4" horiz-adv-x="447" 
d="M258 757q10 1 19 1q43 0 54 -20l-4 -83v-252l85 10q24 -7 24 -33q0 -6 -2 -14q-8 -33 -42 -33h-6l-55 -12v-10q0 -145 27 -298q-6 -29 -35 -29t-34 29q-26 136 -26 293q-45 0 -213 -101q-14 0 -26.5 13.5t-12.5 46.5l214 466q15 26 33 26zM129 337q52 31 130 49v215z" />
    <glyph glyph-name="five" unicode="5" horiz-adv-x="445" 
d="M136 768h20q26 -13 26 -46q100 12 149 28q31 -10 31 -32q0 -7 -5 -19q-36 -54 -189 -55l-36 -135q111 36 212 36t111 -98q2 -13 2 -29q0 -85 -63 -242q-72 -178 -188 -181h-9q-100 0 -154 80q-56 87 -56 230q3 27 26 31h5q27 0 32 -31q13 -204 116 -229q14 -4 27 -4
q85 0 138 143q56 147 56 196q0 7 -1 11q-8 41 -63 41h-5q-59 -2 -242 -47q-32 18 -32 56l62 216q6 80 30 80z" />
    <glyph glyph-name="six" unicode="6" horiz-adv-x="448" 
d="M238 769q8 3 14 3q12 0 24 -12q9 -11 9 -23q0 -7 -3 -15q-96 -149 -124 -241.5t-50 -280.5q58 113 134 171t101 58q11 4 20 4q35 0 49 -45q0 -182 -102 -288.5t-183 -111.5h-52q-32 12 -40 72q0 344 84.5 513t118.5 196zM144 73q103 47 151.5 119.5t48.5 158.5
q-121 -55 -200 -278z" />
    <glyph glyph-name="seven" unicode="7" horiz-adv-x="445" 
d="M343 758q7 1 12 1q18 0 26 -21q7 -16 7 -32q0 -21 -9 -50l-49 -193l82 36q5 2 8 2q17 0 29 -22q7 -12 7 -22q0 -13 -11 -22l-133 -57q-53 -231 -53 -370q-3 -45 -29 -45h-2q-9 -3 -17 -3q-28 0 -28 31q9 196 45 342l-64 -32h-4q-19 0 -32 21q-8 11 -8 24t8 25l118 57
l57 232l-277 -110q-11 0 -24 14t-13 38q1 32 354 156z" />
    <glyph glyph-name="eight" unicode="8" horiz-adv-x="447" 
d="M143 244l-7 -8q-36 -43 -40 -94v-4q0 -29 21 -54q14 -17 42 -33q20 -12 42 -12q47 0 101 57q55 66 56 183q-29 41 -31 45q-3 3 -16 3q-18 0 -56 -12q-64 -23 -112 -71zM141 615l-8 -10q-37 -42 -40 -92v-6q0 -28 21 -53q15 -17 42 -35q19 -12 41 -12q47 0 102 60
q54 65 55 152q-10 -11 -33 -11q-11 0 -20 7l-9 9q-11 12 -11 27q0 13 31 46q-23 0 -59 -12q-66 -23 -112 -70zM361 406q16 0 31 -12q32 -38 32 -116q0 -25 -1 -56q-16 -120 -75 -188q-83 -75 -144 -75q-9 0 -21 2q-63 15 -109 70l-7 9q-40 50 -40 104q0 15 4 33
q13 66 61 121q31 36 46 46q-26 8 -68 57l-7 7q-40 51 -40 106q0 15 4 31q13 67 60 122q49 57 125 86q46 18 88 18q25 0 41 -4q7 8 21 8q12 0 26 -11q34 -39 34 -116q0 -26 -3 -57q-16 -120 -58 -185z" />
    <glyph glyph-name="nine" unicode="9" horiz-adv-x="448" 
d="M208 -9q-7 -3 -13 -3q-12 0 -24 12q-9 11 -9 23q0 8 3 15q98 148 125 241.5t50 280.5q-58 -114 -134.5 -171.5t-101.5 -57.5q-11 -3 -20 -3q-35 0 -49 44q0 182 103 288t183 112h50q32 -11 41 -71q0 -344 -84.5 -513t-119.5 -197zM304 688q-105 -46 -153 -119.5
t-48 -158.5q121 55 201 278z" />
    <glyph glyph-name="colon" unicode=":" horiz-adv-x="135" 
d="M73 112q25 -5 25 -26v-7q0 -19 -7 -33q-6 -17 -28 -17q-9 0 -21 4q-13 0 -13 36v12q6 31 33 31h11zM96 347q12 -12 12 -29q0 -8 -3 -18l-3 -8q-9 -26 -21 -42q-10 -12 -21 -12q-6 0 -12 4q-8 4 -16 15q-5 2 -5 12q0 14 10 43q4 7 7 16q15 28 32 28q5 0 11 -3q5 -2 9 -6z
" />
    <glyph glyph-name="semicolon" unicode=";" horiz-adv-x="204" 
d="M138 327q23 -8 23 -39q0 -9 -2 -20q-3 -11 -6 -20q-18 -49 -32 -49h-8q-12 0 -20 3q-24 8 -24 34q0 25 11 56l4 10q10 28 37 28h5q7 -1 12 -3zM62 -187q-12 14 -12 30q0 20 17 43q22 31 22 82q0 18 -3 39q-2 18 -2 31q0 33 16 33q5 0 13 -3q34 -17 34 -98v-16
q-4 -95 -85 -141z" />
    <glyph glyph-name="semicolon" unicode="&#x37e;" horiz-adv-x="204" 
d="M138 327q23 -8 23 -39q0 -9 -2 -20q-3 -11 -6 -20q-18 -49 -32 -49h-8q-12 0 -20 3q-24 8 -24 34q0 25 11 56l4 10q10 28 37 28h5q7 -1 12 -3zM62 -187q-12 14 -12 30q0 20 17 43q22 31 22 82q0 18 -3 39q-2 18 -2 31q0 33 16 33q5 0 13 -3q34 -17 34 -98v-16
q-4 -95 -85 -141z" />
    <glyph glyph-name="less" unicode="&#x3c;" horiz-adv-x="521" 
d="M204 255q19 -2 39 -5q100 -14 197 -39q40 -9 41 -38v-11q-4 -29 -34 -29h-8q-137 33 -249 49q-60 8 -113 12h-2q-33 5 -35 32v7q0 7 3 12q4 10 15 16l4 2l2 1q49 24 102 54q98 57 210 138l6 2q9 5 18 5q16 0 26 -18q2 -2 3 -4q1 -3 2 -5v-1q2 -6 2 -11q0 -21 -27 -39
q-79 -60 -167 -110z" />
    <glyph glyph-name="equal" unicode="=" horiz-adv-x="537" 
d="M45 401l1 2q7 30 42 30h2q53 -3 113 -3q114 0 254 13h5q35 -3 35 -37v-6q0 -2 -1 -6q-5 -30 -49 -33q-99 -12 -200 -12q-79 0 -159 7q-43 5 -43 38v7zM40 247q7 31 42 31h2q54 -5 116 -5q112 0 251 14h5q36 -3 36 -37q0 -4 -1 -6q0 -3 -1 -5q-5 -31 -49 -34
q-99 -12 -200 -12q-79 0 -158 7q-43 4 -43 38v9z" />
    <glyph glyph-name="greater" unicode="&#x3e;" horiz-adv-x="521" 
d="M317 341q-19 2 -39 5q-100 14 -196 40q-41 8 -42 37v11q5 29 35 29h8q136 -33 248 -49q60 -8 113 -12h2q33 -5 35 -32v-7q0 -6 -3 -12q-4 -10 -15 -16l-4 -2l-2 -1q-49 -24 -102 -54q-97 -57 -210 -138l-5 -2q-10 -5 -19 -5q-16 0 -26 18q-2 2 -3 4q-1 3 -1 5l-1 1
q-2 6 -2 11q0 21 27 39q79 60 167 110z" />
    <glyph glyph-name="question" unicode="?" horiz-adv-x="355" 
d="M58 176v8q0 98 86 185q88 91 105 176q1 5 1 11q0 66 -46 89q-28 14 -59 14q-26 0 -53 -11q-59 -20 -76 -176q-16 -19 -35 -19h-8q-27 7 -29 43q27 186 120 218q45 16 85 16t75 -18q70 -33 85 -109q6 -23 6 -46q0 -50 -23 -96q-29 -67 -95.5 -141.5t-69.5 -144.5
q-8 -27 -33 -27h-5q-29 3 -31 28zM132 69q28 0 33 -34v-14q0 -38 -14 -38q-11 -4 -19 -4q-22 0 -29 19q-6 15 -6 35v7q0 23 25 28q5 1 10 1z" />
    <glyph glyph-name="at" unicode="@" horiz-adv-x="901" 
d="M421 592q35 3 69 3q156 0 248 -83.5t97 -212.5q1 -7 1 -14q-5 -108 -61.5 -155.5t-94.5 -47.5q-6 0 -13 1q-19 0 -37 4q-86 10 -137 68q-105 -131 -182 -136q-5 -1 -10 -1q-68 0 -79 73q-2 14 -2 29q0 65 39 140q48 92 180 154q93 43 133 43q17 0 25 -8q15 -15 15 -30
q0 -11 -8 -22q-301 -91 -311 -289q5 -14 18 -14q24 0 75 52q77 80 82 123q3 31 31 31q9 0 21 -3q34 0 34 -67t91 -72q10 -1 21 -1q51 0 76.5 37t25.5 96q0 8 -1 16q0 75 -73.5 142.5t-204.5 67.5h-18q-17 0 -34 -1q-162 -9 -235 -137q-64 -109 -64 -246q0 -22 2 -44v-2
q1 -102 111 -122q16 -2 32 -2q96 0 200 98q9 6 17 6q12 0 21 -12q11 -15 11 -35q0 -7 -1 -15q-19 -41 -135 -80q-59 -23 -117 -23q-56 0 -119.5 26.5t-93.5 148.5v3q-1 23 -1 45q0 176 87 304q86 144 269 164z" />
    <glyph glyph-name="A" unicode="A" 
d="M257 767q23 0 28.5 -74.5t66.5 -318.5l45 37q12 8 24 8q14 0 26 -14q10 -11 10 -22q0 -9 -5 -16l-78 -75q0 -33 143 -340v-10q-17 -27 -42 -27q-4 0 -10 1q-30 0 -157 326q-145 -131 -249 -262q-14 -12 -26 -12t-21 13q-12 14 -12 28q0 11 7 22q69 95 119.5 300.5
t63.5 320.5t67 115zM149 190l129 134l-36 209q-23 -195 -93 -343z" />
    <glyph glyph-name="B" unicode="B" horiz-adv-x="656" 
d="M135 438l5 -13q78 53 136 249v6q0 23 -9 23q-4 0 -8 -3q-78 -75 -124 -262zM143 310v-146h8q25 0 39 -41q33 -86 127 -86q222 23 265 266q0 102 -195 102q-244 -22 -244 -95zM148 59l1 -49q0 -38 -35 -38q-38 0 -40 33v290q0 104 -49 406q0 23 8.5 32t33.5 9
q24 0 39 -163q81 201 169 201q63 -3 63 -84q0 -88 -78 -243q57 20 129 20q53 0 116 -12q146 -25 146 -131q-20 -235 -205 -339q-60 -26 -126 -26q-25 0 -52 5q-53 0 -120 89z" />
    <glyph glyph-name="C" unicode="C" horiz-adv-x="509" 
d="M469 166q21 17 34 17q21 0 24 -39q-108 -147 -197 -163l-19 -1q-13 -2 -25 -2h-5q-141 0 -194 105q-22 43 -28 159q-1 15 -1 30q0 102 38 207q43 121 92 202.5t113 91.5q4 1 8 1q3 1 4 1q2 0 3 -1q88 -6 105.5 -62.5t21.5 -79.5l1 -11v-8q0 -16 -7 -26q-9 -11 -20 -12h-3
q-1 1 -3 1q-1 0 -3 -1q-17 4 -24 16q-10 27 -15 57q-2 10 -4 19v3q-7 25 -43 25h-7q0 -1 -1 -2q-49 -6 -82 -73t-70 -161q-33 -85 -33 -172q0 -11 1 -21q4 -99 18 -131q38 -91 136 -91h2l26 2q67 10 157 120z" />
    <glyph glyph-name="D" unicode="D" horiz-adv-x="488" 
d="M139 42l27 -3q256 46 256 311q-3 245 -99 369q-178 -332 -190 -567zM147 3q-10 -17 -30 -19h-4q-31 4 -34 51v33q0 95 -4 225q-6 154 -50 425q6 31 31 32h3q23 0 35 -25l37 -298q116 332 198 388q125 -114 150 -393q4 -40 4 -76q0 -216 -129 -294q-127 -78 -177 -78
q-9 0 -16 3q-13 14 -14 26z" />
    <glyph glyph-name="E" unicode="E" horiz-adv-x="524" 
d="M71 739q34 0 36 -35v-20l278 37q10 3 18 3q24 0 32 -29v-12q0 -31 -36 -37l-299 -43v-261l173 8q18 7 30 7q28 0 31 -27q1 -6 1 -8q0 -34 -42 -40l-181 -13q24 -222 122 -222h21q87 0 151 35q70 40 80 40q12 0 25 -12q13 -13 13 -25q0 -11 -8 -21q-114 -88 -270 -88
q-26 0 -55 4q-156 38 -156 410v314q3 35 36 35z" />
    <glyph glyph-name="F" unicode="F" horiz-adv-x="395" 
d="M53 330q-1 6 -2 14q-11 119 -17 241q-3 69 -4 138q1 34 39 34q32 0 37 -41l238 37q8 4 18 4q23 0 31 -30q2 -7 2 -13v-1q0 -30 -36 -35l-254 -39q1 -62 3 -120q5 -137 16 -185q111 0 194 28q4 2 6 2q21 0 28 -28v-3q1 -1 1 -3q1 -5 1 -10q0 -26 -25 -33
q-100 -33 -196 -33q4 -50 21 -134.5t24 -128.5q-3 -28 -41 -28q-36 2 -36 18l-1 11q-30 131 -40 267q-11 6 -17 25v5q-1 7 -1 14q0 20 11 27z" />
    <glyph glyph-name="G" unicode="G" horiz-adv-x="499" 
d="M442 105q-35 -113 -142 -129q-12 -2 -25 -3l-20 -1h-5q-140 0 -193 105q-21 41 -31 96q-3 21 -5 44q-1 16 -1 32v2q3 98 25.5 203t78.5 191q46 78 112 88l16 1q87 -7 102.5 -68.5t20.5 -92.5q2 -8 2 -13v-4q0 -17 -8 -28q-9 -10 -19 -11h-9q-17 3 -24 15q-9 27 -15 67
q-1 9 -3 18v3q-7 36 -38 36h-5l-13 -2q-46 -7 -78 -71q-36 -71 -54.5 -150.5t-19.5 -166.5q0 -14 1 -27q1 -22 5 -43q6 -39 20 -70q36 -93 133 -93h4l27 2q77 12 107 94q18 48 20 119q-49 -16 -87 -21q-14 -2 -27 -3q-9 -1 -18 -1q-18 0 -33 3h-4q-27 0 -31 24l-1 1v14
q0 25 18 30l3 2q20 -2 40 -2q13 0 26 1q21 1 40 5q55 8 112 30h6q16 0 21 -20q7 -6 10 -16l1 -4q0 -21 1 -43q2 -31 7 -63q12 -70 40 -144v-2q2 -3 2 -5v-2q0 -18 -19 -23h-10q-27 0 -36 30z" />
    <glyph glyph-name="H" unicode="H" 
d="M122 266q79 112 179 238q-23 95 -29 184v17q10 28 29 31l14 2h1q23 0 25 -40t21 -128l26 24q23 18 39 18q12 0 20 -7q14 -13 14 -26v-2q-1 -10 -11 -23q-40 -29 -75 -70q54 -301 107 -509q1 -6 1 -11q0 -22 -16 -33q-15 -9 -27 -9q-13 0 -21 11q-67 281 -99 482
q-33 -28 -112.5 -141t-125.5 -288q-12 -7 -22 -7q-26 0 -35 32l20 163q12 134 12 258q0 156 -18 295q7 18 37 23q9 2 14 2q11 0 18 -8q17 -157 17 -337q0 -73 -3 -141z" />
    <glyph glyph-name="I" unicode="I" horiz-adv-x="180" 
d="M111 -33l-2 1q-31 0 -38 18q-31 274 -31 521v42q1 77 5 154q1 26 32 29h6q28 0 30 -25q-3 -73 -3 -144v-23q0 -239 30 -548v-2q0 -21 -29 -23z" />
    <glyph glyph-name="J" unicode="J" horiz-adv-x="159" 
d="M-74 -167q-70 0 -126 15q-10 7 -10 21v15q0 24 10 32q10 6 19 6q4 0 9 -1q35 -9 90 -9q86 10 112 85q15 53 15 216q0 191 -21 534q1 25 32 25h4q34 -1 41 -22q18 -295 18 -487q0 -138 -9 -222q-17 -208 -184 -208z" />
    <glyph glyph-name="K" unicode="K" horiz-adv-x="496" 
d="M89 689q18 -37 22 -139v-99q121 172 277 277q9 5 20 5q10 0 18 -7q13 -15 14 -30v-4q0 -20 -9 -26q-180 -119 -280 -283q125 -280 260.5 -375t245.5 -95q28 0 28 -31q0 -10 -2 -23q-10 -27 -47 -27q-5 0 -8 1q-144 15 -276.5 124.5t-240.5 331.5v-295q-4 -30 -33 -33h-2
q-27 0 -33 33v595q-3 16 -13 73q9 31 35 31q11 0 24 -4z" />
    <glyph glyph-name="L" unicode="L" horiz-adv-x="441" 
d="M63 729q-1 0 -1 2q30 0 38 -36v-97q0 -250 29 -399q34 -181 102 -198q23 -7 55 -7q52 0 122 19q5 2 9 2q22 0 24 -32v-4q0 -33 -30 -41q-68 -17 -127 -17q-47 0 -88 10q-93 25 -132 201q-34 152 -34 456q0 51 1 107q4 31 32 34z" />
    <glyph glyph-name="M" unicode="M" horiz-adv-x="761" 
d="M407 494q75 184 191 209q138 -96 138 -472q0 -92 -9 -204v-2q0 -34 -33 -34h-4q-23 3 -32 36q5 88 5 163q0 345 -77 430q-116 -102 -141 -373l10 -220q-13 -33 -34 -33h-6q-26 5 -29 33l-10 131q-40 380 -118 475q-154 -181 -158 -369q-1 -36 -1 -68q0 -133 14 -182
q-13 -32 -39 -32h-2q-33 9 -35 111t-2 327v226q7 31 33 31q24 0 36 -30v-151q70 180 169 225q86 -57 134 -227z" />
    <glyph glyph-name="N" unicode="N" horiz-adv-x="521" 
d="M117 502q0 -165 -4.5 -263.5t-13.5 -222.5v-2q0 -39 -32 -41q-2 -1 -6 -1q-30 0 -31 41q9 107 14 229q1 48 1 118q0 109 -4 272q18 36 40 36h5q25 -6 57 -79.5t237 -348.5q7 80 7 172q0 31 -1 63q-1 53 -1 101q0 63 2 113q2 34 31 34h3q31 -2 35 -33q-6 -70 -6 -168v-53
q1 -66 1 -129q0 -62 -1 -121q1 -45 39 -212q2 -5 2 -12v-1q0 -18 -21 -25q-11 -2 -19 -2q-10 0 -17 6q-9 9 -44.5 97t-87 168.5t-97 131t-88.5 132.5z" />
    <glyph glyph-name="O" unicode="O" horiz-adv-x="506" 
d="M230 759q84 0 175 -155q81 -139 81 -291q0 -15 -1 -31q-10 -171 -89 -241q-75 -64 -169 -64h-13q-105 5 -149.5 99t-44.5 200q0 105 49 238.5t125 193.5v7q0 35 36 44zM90 279v-13q0 -104 45 -178q30 -46 87 -55q36 0 81 18q117 68 119 243v4q0 174 -115 324
q0 -101 -36 -113q-8 -1 -14 -1q-31 0 -32 37q14 44 14 67q0 17 -9 21q-35 0 -86 -121.5t-54 -232.5z" />
    <glyph glyph-name="P" unicode="P" horiz-adv-x="466" 
d="M63 663h1q34 -7 48 -70q14 -33 27 -132q26 93 81 172.5t82 93.5q11 5 23 5q5 0 13 -1q85 -23 85 -149q0 -41 -9 -92q-35 -201 -248 -201q-11 0 -23 1q4 -156 37 -293q1 -9 1 -16q0 -39 -30 -39h-7q-26 7 -44.5 143.5t-20.5 179.5q-7 236 -49 351v16q3 32 25 32q4 0 8 -1z
M180 344q146 4 171 144q9 52 9 88q0 62 -26 81q-105 -96 -154 -313z" />
    <glyph glyph-name="Q" unicode="Q" horiz-adv-x="515" 
d="M372 128q50 71 54 220q-3 161 -120 267q-45 8 -76 9q-36 0 -86.5 -98.5t-56.5 -224.5v-23q0 -111 47 -180q32 -46 88 -46q35 0 81 19q10 4 18 9q-4 7 -11 18q-11 15 -22 34q-8 12 -8 22q0 13 7 24q2 5 5 5q2 4 5 7q10 9 17 9q8 0 14 -6l3 -3q11 -19 23 -35q9 -15 18 -27z
M368 20q-64 -43 -141 -43h-13q-105 5 -149.5 98.5t-44.5 219.5q0 125 49.5 234t124.5 170v7q0 33 36 43q83 0 174 -130t91 -282q-17 -193 -76 -270q20 -26 40 -46q3 -2 4 -5q6 -8 6 -17q0 -11 -7 -22l-5 -4q-2 -3 -4 -5q-9 -9 -18 -9q-8 0 -18 8q-26 26 -49 53z" />
    <glyph glyph-name="R" unicode="R" horiz-adv-x="446" 
d="M189 373q121 49 159 166q17 55 17 90q0 41 -23 58q-85 -50 -153 -314zM152 265q-2 -195 -7 -238q-1 -19 -3 -28q-9 -29 -30 -29q-4 0 -7 1h-1q-26 7 -31 45q3 12 4 27q3 36 3 115q0 64 8 136q-7 236 -49 350v17q3 32 25 32q4 0 9 -1h1q34 -9 47 -70q14 -34 28 -134
q44 142 90 198.5t70 68.5q14 6 25 6q6 0 13 -1q8 1 14 1q65 0 65 -120q0 -28 -3 -62q-20 -199 -204 -279q132 -189 222 -268q106 -94 215 -94q29 0 29 -32q0 -11 -3 -23q-9 -27 -47 -27q-4 0 -8 1q-144 15 -247 125q-90 94 -228 283z" />
    <glyph glyph-name="S" unicode="S" horiz-adv-x="449" 
d="M114 722q32 21 66 24h12q21 0 40 -5q65 -16 86 -122l1 -12v-6q0 -26 -24 -31l-8 -1h-3q-28 0 -30 30q-16 76 -61 76h-6l-8 -1q-49 -10 -49 -66q0 -6 1 -13l1 -9q10 -81 126 -150.5t155 -141.5q29 -51 34 -107q2 -12 2 -26q0 -13 -2 -27q-10 -86 -83 -130q-37 -21 -81 -25
q-10 -1 -21 -1q-35 0 -75 10q-106 28 -154 232v3q0 35 23 44l10 2h3q18 0 35 -18q36 -176 106 -193q25 -7 47 -7q7 0 14 1q36 3 66 22q44 28 44 92q0 9 -1 17l-2 13q-28 97 -134 149q-167 100 -183 236v1q-1 14 -1 25q0 84 54 115z" />
    <glyph glyph-name="T" unicode="T" horiz-adv-x="452" 
d="M249 622q-1 -37 -1 -74v-23q9 -229 39 -538v-2q0 -21 -28 -24l-3 1q-30 0 -38 19q-31 274 -40 511v41l2 85q-60 -3 -149 -3q-31 0 -31 32v4q2 36 25 38q71 0 160 6q6 19 30 21h6q23 0 29 -15q67 6 178 34q29 -1 29 -33v-5q-3 -35 -32 -43q-107 -28 -176 -32z" />
    <glyph glyph-name="U" unicode="U" horiz-adv-x="508" 
d="M389 206q-70 -218 -204 -225q-87 10 -122 158q-28 116 -28 358q0 74 2 158v11q11 20 33 20q7 0 16 -3q19 -12 19 -48v-88q-1 -49 -1 -96q0 -394 78 -394h2q111 12 195 344q-2 70 -2 87v42q1 37 5 114q2 26 32 29h6q28 0 30 -25q-3 -73 -3 -104v-23q0 -210 30 -519v-2
q0 -21 -27 -23l-4 1q-30 0 -38 18q-11 101 -19 210z" />
    <glyph glyph-name="V" unicode="V" horiz-adv-x="528" 
d="M470 832q7 2 13 2q24 0 45 -34q0 -36 -60 -229l-91 -286.5t-59 -289.5q-5 -18 -29 -18q-5 0 -12 1q-26 3 -51.5 119t-115.5 353l-110 248q0 44 26 44q11 0 27 -10q33 -35 107.5 -222t115.5 -314q0 53 177 574q-4 16 -4 26q0 27 21 36z" />
    <glyph glyph-name="W" unicode="W" horiz-adv-x="766" 
d="M690 693h15q21 -1 26 -20q-17 -77 -26 -166q-2 -25 -3 -50q-3 -29 -4 -59q-1 -27 -1 -57v-18q1 -201 31 -323q-9 -33 -44 -33h-6q-40 6 -143.5 163t-152.5 293q-90 -124 -232 -431q-12 -14 -25 -14h-1q-7 0 -14 4q-15 7 -15 25v4q1 7 4 17l3 30q2 38 3 74q1 37 1 72
q0 268 -71 488v8q1 23 17 30q15 4 24 4h2q45 -9 75 -179q22 -125 22 -256q0 -26 -1 -52q-1 -25 -1 -44q99 203 181 319q10 27 32 27h2q5 0 7 -2q28 -5 31 -32q98 -244 214 -405q-18 96 -18 213q0 23 1 48l2 54l4 44q7 78 21 161q5 54 40 63z" />
    <glyph glyph-name="X" unicode="X" horiz-adv-x="526" 
d="M436 764q21 0 21 -25v-4q-20 -131 -134 -404l202 -287q1 -8 1 -15q0 -22 -12 -34q-9 -10 -20 -10q-9 0 -21 8l-186 254q-4 0 -43 -83.5t-78 -151t-57 -85.5q-9 -1 -18 -1q-13 0 -28 5q-16 5 -16 18q0 9 6 21q97 145 182 352l-267 398q-3 9 -3 17q0 12 11 24q10 14 24 14
q7 0 14 -3l249 -359q44 66 117 323q2 31 34 31q10 0 22 -3z" />
    <glyph glyph-name="Y" unicode="Y" horiz-adv-x="336" 
d="M321 706q13 17 27 17h5q6 -1 12 -5q18 -13 18 -42q0 -8 -1 -18q-123 -454 -190.5 -616.5t-165.5 -227.5q-5 -3 -12 -3q-19 0 -35 21q-3 8 -3 17q0 19 17 33q104 106 153 238.5t60 219.5q-148 222 -234 271q-3 8 -3 16q0 4 1 8q2 9 7 20q11 18 26 18h6l4 -1
q45 -10 225 -243z" />
    <glyph glyph-name="Z" unicode="Z" horiz-adv-x="604" 
d="M470 743l8 4q0 5 2 5q3 0 9 -6q5 -2 10 -10q9 -13 9 -28v-6q-1 -7 -1 -12q-95 -281 -322 -552q32 5 42 5q32 0 75 -12q42 -13 93 -34q76 -35 126 -48q32 -10 51 -11h2q30 -8 30 -39v-8q-1 -7 -3 -17q-11 -13 -32 -13q-8 0 -19 4q-6 0 -13 3q-43 12 -141 52q-46 18 -86 30
q-54 15 -95 15h-5q-73 -1 -167 -96q-25 7 -34 21t-9 27v4q3 32 71 91t193 244t169 313q-84 -19 -142 -19q-79 0 -200 12q-16 6 -16 30q0 4 1 8q0 3 1 7q9 19 29 19q8 0 19 -3q75 -7 140 -7q119 0 205 27z" />
    <glyph glyph-name="bracketleft" unicode="[" horiz-adv-x="349" 
d="M79 791q85 -2 172 -8q17 -1 25 -11q4 -3 6 -8q3 -6 4 -14v-7q0 -14 -9 -21q-2 -2 -6 -4q-6 -3 -15 -3q-68 4 -135 5q29 -226 29 -460q0 -76 -3 -157q0 -27 -2 -55q-1 -83 -7 -167h123q17 -1 27 -10q3 -3 5 -7q4 -6 5 -14l1 -8q0 -13 -8 -21q-3 -3 -7 -4q-5 -3 -14 -4h-36
q-71 0 -141 -2v4q-11 2 -18 9q-2 2 -3 6q-3 6 -4 15q5 94 8 186v31q3 85 3 168q0 253 -29 529v3q0 12 8 19q3 3 6 5q6 2 15 3v2z" />
    <glyph glyph-name="backslash" unicode="\" horiz-adv-x="419" 
d="M38 819q4 0 7 -1q10 -2 15 -12l1 -3q104 -305 264 -624l13 -26l78 -150q3 -7 3 -13q0 -4 -1 -7q-3 -10 -16 -17q-2 -1 -6 -2q-8 -3 -15 -3q-4 0 -9 1q-12 3 -20 16l-84 160l-23 44q-166 329 -245 597v5q0 6 2 11q4 12 19 19l3 2q8 3 14 3z" />
    <glyph glyph-name="bracketright" unicode="]" horiz-adv-x="349" 
d="M270 -189q-85 3 -172 8q-17 2 -26 12q-3 3 -5 7q-3 6 -4 14v8q0 13 9 21q2 2 6 3q6 3 15 4q68 -4 135 -6q-29 227 -29 460q0 77 3 158q0 26 1 54q2 83 7 167h-40q-41 0 -83 1q-16 0 -26 10q-3 3 -5 7q-4 6 -6 14v7q0 14 8 22q3 2 7 4q5 3 14 4h36q71 0 141 1v-4
q11 -1 18 -8q2 -3 3 -7q3 -5 4 -14q-5 -95 -8 -186v-31q-3 -85 -3 -168q0 -254 28 -529l1 -4q-1 -12 -8 -19l-6 -4q-6 -3 -15 -3v-3z" />
    <glyph glyph-name="asciicircum" unicode="^" horiz-adv-x="406" 
d="M183 600q-4 -19 -9 -38q-24 -97 -60 -190q-13 -37 -40 -37h-2l-10 1q-27 7 -27 33v5l1 3l1 4q47 131 75 241q14 58 24 110v2q8 31 34 31h5l2 -1h2q6 0 11 -4q10 -5 14 -17q1 -1 3 -4v-1q18 -52 43 -107q47 -103 116 -223l2 -6q3 -8 3 -15v-3q-2 -16 -21 -25q-2 -1 -5 -2
h-5v-1q-4 -1 -7 -1t-5 1q-21 1 -36 30q-52 85 -93 178z" />
    <glyph glyph-name="underscore" unicode="_" horiz-adv-x="383" 
d="M457 -51q1 -2 1 -5q0 -2 -1 -3q-4 -31 -56 -34q-173 0 -416 -25h-8q-52 0 -52 39v6q5 31 65 39q181 19 386 19h19q62 -1 62 -36z" />
    <glyph glyph-name="grave" unicode="`" horiz-adv-x="233" 
d="M208 464l-3 -3q-10 -11 -22 -11q-8 0 -17 6l-144 117q-11 11 -11 23q0 13 12 27l5 5q12 13 24 13q10 0 20 -9l140 -119l2 -2q8 -8 8 -17q0 -13 -14 -30z" />
    <glyph glyph-name="a" unicode="a" horiz-adv-x="451" 
d="M318 242q-156 -30 -210 -119q-20 -33 -20 -52q0 -25 43 -25q10 0 22 1q105 11 165 195zM344 140q-47 -145 -187 -157q-17 -1 -32 -1q-113 0 -113 78q0 25 13 60q49 127 263 181q-73 -16 -111 -16q-43 0 -92 2l-9 1q-21 1 -44 3q-22 10 -22 34q0 4 1 8v6q10 26 33 26h2
q4 0 5 -1l1 1q27 -5 85 -8h43q41 0 73 2q48 2 104 7q25 0 29 -33v-11q1 -2 2 -5q2 -10 8.5 -56.5t21 -107t32.5 -127.5v-1q2 -4 3 -7v-5q0 -15 -21 -25l-7 -2q-9 -3 -17 -3q-18 0 -28 12l-11 40l-13 54q-7 27 -12 51z" />
    <glyph glyph-name="b" unicode="b" horiz-adv-x="438" 
d="M141 56q4 -5 16 -5q21 0 64 17q66 26 104 102q32 63 32 107q0 8 -1 17q-4 30 -29 30q-14 0 -35 -10q-56 -29 -99.5 -79.5t-54.5 -107.5q-6 -26 -6 -42q0 -22 9 -29zM109 232q81 116 180 149q29 10 52 10q68 0 76 -88q1 -14 1 -27q0 -102 -68 -188q-77 -97 -181 -107
q-13 -2 -24 -2q-64 0 -88 40l-10 112q-5 61 -9 117q-18 141 -18 253v78q0 29 1 59q2 27 32 27h5q34 -2 34 -29v-4q0 -5 -1 -11v-1q-2 -98 -2 -180q3 -102 20 -208z" />
    <glyph glyph-name="c" unicode="c" horiz-adv-x="415" 
d="M112 147q-12 -35 -12 -59q0 -7 1 -14q4 -21 16 -25q12 -5 29 -5q11 0 24 2q19 3 43 13q66 22 141 101q11 7 19 9h7q9 0 18 -10q5 -8 7 -17q1 -3 1 -6t-1 -6q0 -8 -5 -16q-59 -78 -163 -117q-37 -13 -68 -19q-22 -4 -41 -4q-29 0 -50 10q-30 14 -41 46q-3 9 -5 18
q-2 14 -2 31t2 37q6 53 50 126t90.5 106t81.5 42l3 1q4 0 12 1q9 2 17 2q47 0 59 -62l2 -13q1 -4 1 -10q0 -26 -25 -35q-4 -3 -9 -4h-3q-4 -1 -7 -1q-14 0 -16 15l-1 4q-9 29 -19 29h-1q-2 1 -5 1t-7 -1h-2q-19 -5 -49 -30.5t-53.5 -60t-38.5 -79.5z" />
    <glyph glyph-name="d" unicode="d" horiz-adv-x="478" 
d="M311 254q6 25 6 42q0 21 -9 29q-5 5 -16 5q-21 0 -64 -17q-66 -26 -104 -102q-33 -63 -33 -107q0 -9 2 -17q4 -30 29 -30q14 0 35 10q56 28 99.5 78.5t54.5 108.5zM337 396q-5 93 -5 205v78q0 29 1 59q5 29 32 29q3 0 7 -1q32 0 32 -29v-5q0 -5 -1 -12q-2 -98 -2 -180
q2 -159 14 -259q8 -53 21 -119q13 -61 31 -133v-1q2 -4 2 -7q1 -3 1 -6q0 -16 -21 -27l-6 -2q-9 -2 -17 -2q-17 0 -26 12q-6 22 -11 43l-12 58q-10 44 -17 85q-86 -145 -200 -182q-29 -10 -52 -10q-68 0 -76 88q-1 14 -1 27q0 102 68 187q77 98 181 108q8 1 16 1q23 0 41 -7
v2z" />
    <glyph glyph-name="e" unicode="e" horiz-adv-x="421" 
d="M58 199q-9 9 -9 27q5 31 34 31h8q40 61 82 91q46 33 81 42l3 1q4 0 12 1q5 1 9 1q51 0 88 -113q1 -4 1 -7t-1 -6q-2 -43 -71 -69q-75 -16 -133 -16q-19 0 -36 2q-8 -18 -14 -37q-12 -35 -12 -59q0 -8 1 -14q4 -21 16 -25q12 -5 29 -5q11 0 24 2q19 3 43 13q66 22 141 101
q11 7 19 9h7q9 0 18 -10q5 -8 7 -17q1 -3 1 -6t-1 -6q0 -8 -5 -16q-59 -78 -163 -117q-37 -13 -68 -19q-22 -4 -41 -4q-29 0 -50 10q-30 14 -41 46q-3 9 -5 18q-2 14 -2 31t2 37q4 37 26 83zM166 248q26 0 81 6q34 8 43 24q-1 2 -6 21q-6 18 -16 18h-1q-2 1 -5 1t-7 -1h-2
q-19 -5 -49 -30q-20 -18 -38 -39z" />
    <glyph glyph-name="f" unicode="f" horiz-adv-x="261" 
d="M68 275q-25 3 -51 7q-14 3 -14 27v9q3 32 23 32l38 -4v33q0 135 14 217v3q14 85 44 141t80 56q7 0 15 -1l7 -1q57 -10 78 -39q1 -7 1 -13q0 -7 -1 -13q-2 -11 -9 -19q-9 -9 -21 -9h-4l-6 2q-21 14 -38 17q-4 1 -8 1q-11 0 -20 -5q-23 -10 -45 -140l-1 -6
q-11 -64 -11 -144q0 -40 3 -84q55 0 128 4h1q4 2 8 2h1q19 0 27 -26l1 -6v-7q0 -24 -17 -34q-22 -2 -44 -3q-38 -3 -78 -3h-19q7 -48 18 -107q13 -61 30 -133l1 -1q2 -4 2 -7q1 -3 1 -7q0 -16 -21 -26l-6 -2q-9 -2 -17 -2q-17 0 -27 12l-10 43l-13 58q-13 60 -22 113
q-12 14 -18 65z" />
    <glyph glyph-name="g" unicode="g" horiz-adv-x="471" 
d="M309 323q-6 6 -20 6q-19 0 -53 -12q-58 -20 -104 -90q-44 -67 -44 -118v-6q3 -54 43 -54t99.5 61.5t76.5 130.5q9 36 9 57q0 18 -7 25zM359 176q-85 -165 -204 -184q-19 -3 -35 -3q-91 0 -95 96v14q0 106 72 196q76 96 182 104q7 1 14 1q85 0 111 -90q13 -37 22 -91
q20 -121 20 -205v-3q0 -82 -19 -139q-22 -65 -123 -72q-18 -2 -34 -2q-78 0 -128 28q-10 6 -12 21q-1 5 -1 9q0 9 3 18q5 11 18 16q5 2 11 2q7 0 13 -3q57 -18 90 -22q6 -1 12 -1q27 0 59 14q39 16 39 141v6q0 68 -15 149z" />
    <glyph glyph-name="h" unicode="h" horiz-adv-x="437" 
d="M113 277q47 112 132 124q4 1 8 1t8 -1h6q75 0 112 -109q21 -61 29.5 -130.5t8.5 -89.5v-5q0 -29 -18 -39q-10 -9 -21 -10h-8q-4 0 -9 1q-14 4 -18 25v19q1 4 1 10q0 35 -21 136q-24 118 -58 118h-8q-73 -21 -94.5 -109.5t-21.5 -131.5v-7q0 -7 1 -15l1 -21
q-5 -27 -35 -33q-2 -1 -4 -1h-6q-21 0 -25 28l-12.5 94.5t-13.5 114.5l-4 35q-5 42 -8 86l-2 25l-2 52q-1 41 -1 86q0 100 6 219q10 16 29 16h4q25 0 32 -19q-4 -99 -4 -179q0 -63 2 -113q3 -92 14 -177z" />
    <glyph glyph-name="i" unicode="i" horiz-adv-x="265" 
d="M119 542q22 -7 23 -32q0 -6 -3 -14q-64 -63 -85 -63q-4 0 -6 2q-22 10 -23 35q0 5 3 11q60 62 86 62q3 0 5 -1zM81 371q37 -4 37 -41v-1q-4 -36 -4 -68q0 -73 18 -128q16 -53 45 -53q14 0 31 12q16 9 28 9q11 0 21 -9q8 -10 8 -22q0 -11 -7 -25q-28 -35 -86 -47
q-8 -1 -14 -1q-50 0 -84 77q-34 76 -34 219q0 20 1 43q6 33 40 35z" />
    <glyph glyph-name="j" unicode="j" horiz-adv-x="210" 
d="M108 542q22 -7 24 -32q0 -6 -3 -14q-65 -63 -86 -63q-3 0 -5 2q-22 10 -23 35q0 5 2 11q60 62 87 62q2 0 4 -1zM46 336v3q0 18 18 25q15 5 28 5h7q30 -3 55.5 -148.5t25.5 -234.5v-3q0 -86 -20 -146q-23 -69 -85 -70h-7q-58 0 -83 25q-5 14 -5 26q0 11 6 20q9 13 23 13
q3 0 7 -1q23 -10 40 -10q16 0 27 8q21 14 21 146v6q0 137 -58 336z" />
    <glyph glyph-name="k" unicode="k" horiz-adv-x="418" 
d="M121 138q3 -64 15 -131v-3q0 -23 -34 -24h-3q-29 0 -33 31q-12 80 -21.5 184.5t-13.5 202.5q-1 40 -1 77q0 56 3 106q5 84 16 169q5 21 26 21h10q33 -4 34 -26q-14 -105 -18 -196q-3 -67 -3 -112l1 -30q1 -51 13 -178q87 151 170 161q38 -4 38 -39q0 -36 -37 -36
q-32 0 -108 -124q63 -41 96 -57q57 -26 133 -41q16 -6 16 -20v-2q-2 -15 -12 -29q-8 -11 -29 -11h-4q-83 18 -135 43q-50 24 -119 64z" />
    <glyph glyph-name="l" unicode="l" horiz-adv-x="264" 
d="M108 251h2q10 -85 28 -140q16 -53 45 -53q14 0 31 12q17 9 28 9t21 -9q9 -10 9 -22q0 -11 -8 -25q-28 -35 -86 -47q-8 -1 -13 -1q-51 0 -84 77q-29 63 -38 172q-19 131 -19 319v114q0 29 1 59q10 28 39 28h6q26 -7 26 -34q0 -5 -1 -11v-1q-2 -98 -2 -180q2 -165 15 -267z
" />
    <glyph glyph-name="m" unicode="m" horiz-adv-x="679" 
d="M393 32v-20q0 -24 -33 -25h-2q-32 0 -34 30q0 84 -11 177t-44 111q-5 1 -8 2q-40 0 -80.5 -71.5t-54.5 -231.5q-7 -15 -36 -15h-12q-25 1 -25 33v97q0 113 -28 224v1q0 26 35 27h5q32 0 36 -16q18 -73 21 -99l14 23q40 99 120 99h4q7 0 16 -2q74 -22 95 -123
q74 125 145 125h4q8 0 16 -2q77 -23 97.5 -131t20.5 -231v-2q0 -24 -34 -25h-1q-33 0 -35 30q0 84 -11 177t-44 111l-8 2q-39 0 -80 -71q-37 -66 -48 -204z" />
    <glyph glyph-name="n" unicode="n" horiz-adv-x="443" 
d="M124 256l14 23q65 99 145 99h4q7 0 16 -2q77 -23 97 -131t20 -217v-2q0 -24 -33 -25h-2q-32 0 -34 30q0 70 -11 163t-44 111q-5 1 -8 2q-40 0 -93 -71.5t-62 -231.5q-2 1 -5 2v-2q-7 -15 -36 -15h-12q-25 1 -25 33v97q0 113 -28 224v1q0 26 35 27h5q32 0 36 -16
q18 -73 21 -99z" />
    <glyph glyph-name="o" unicode="o" horiz-adv-x="330" 
d="M281 323q20 -39 20 -95q0 -27 -5 -58q-2 -13 -5 -25q-21 -80 -92 -137q-14 -9 -27 -14q-22 -10 -41 -10q-8 0 -16 2q-33 9 -69 90q-12 27 -12 61q0 64 44 148q57 107 117 107q12 0 24 -4q32 -8 62 -65zM200 313h-6q-34 0 -84 -109l-4 -16q-5 -28 -5 -51q0 -31 9 -53l2 -5
q12 -24 27 -27q4 -1 8 -1q5 0 10 2q29 12 55 79q8 19 13 37q2 29 2 53q0 83 -27 91z" />
    <glyph glyph-name="p" unicode="p" horiz-adv-x="436" 
d="M139 135q-8 -36 -8 -57q0 -18 6 -25q7 -6 20 -6q19 0 53 12q58 20 104 90q44 67 44 118v6q-3 54 -43 54t-99.5 -61.5t-76.5 -130.5zM95 216q83 150 196 168q20 3 36 3q90 0 94 -96v-14q0 -106 -72 -196q-76 -96 -182 -104q-6 -1 -13 -1q-20 0 -37 5q2 -7 3 -14
q11 -60 28 -130v-1q2 -4 3 -7t1 -6q0 -16 -21 -27l-5 -2q-9 -2 -16 -2q-16 0 -25 12q-6 22 -10 43l-12 58q-36 180 -36 301v6h1q-1 16 -1 33l-2 59v45q9 19 35 19h9q25 -7 26 -27q0 -3 -1 -8v-1q0 -63 1 -116z" />
    <glyph glyph-name="q" unicode="q" horiz-adv-x="429" 
d="M302 323q-5 5 -16 5q-21 0 -64 -17q-66 -26 -104 -102q-32 -63 -32 -106q0 -9 1 -18q4 -30 29 -30q14 0 34 10q57 29 100.5 79.5t54.5 107.5q6 26 6 42q0 22 -9 29zM323 130q-70 -99 -169 -132q-29 -10 -52 -10q-68 0 -76 88q-1 14 -1 27q0 102 68 188q77 97 181 107
q13 2 24 2q64 0 88 -40l10 -112q-2 -45 -2 -87q0 -182 32 -302q0 -29 -25 -29q-4 0 -7 1q-7 -1 -12 -1q-19 0 -19 19v2q-26 46 -40 279z" />
    <glyph glyph-name="r" unicode="r" horiz-adv-x="419" 
d="M99 264q50 129 185 136h12q105 0 105 -83q0 -19 -6 -43q-23 -99 -127 -146q1 -1 2 -1q57 -25 134 -40q15 -6 15 -20v-2q-1 -16 -11 -29q-9 -12 -29 -12h-5q-83 18 -135 44q-50 24 -119 64q3 -65 16 -132v-2q0 -23 -35 -24h-2q-35 0 -39 31q-3 21 -14 80t-14 160l-2 59v45
q9 19 35 19h9q25 -7 26 -27q0 -3 -1 -8v-69zM147 192l29 -15q104 8 137 82q11 25 11 42q0 35 -48 35h-11q-80 -6 -118 -144z" />
    <glyph glyph-name="s" unicode="s" horiz-adv-x="309" 
d="M80 378q20 13 43 16q6 1 12 1q12 0 23 -3q46 -8 61 -71l1 -7v-5q0 -26 -28 -32h-13q-26 0 -29 26q-7 25 -17 25h-5q-10 -3 -10 -19v-5l1 -4q5 -33 67.5 -65t87.5 -71q17 -27 21 -58q1 -9 1 -19v-10q-5 -52 -52 -80q-23 -14 -51 -18q-9 -1 -19 -1q-19 0 -40 4
q-68 14 -100 125v4q0 28 24 39l10 1h4q17 0 34 -14q21 -83 49 -89q11 -2 21 -2h7q14 2 26 11q15 9 15 32v8l-1 6q-14 40 -66 62q-100 50 -113 125v1q-1 9 -1 17q0 49 37 70z" />
    <glyph glyph-name="t" unicode="t" horiz-adv-x="463" 
d="M172 269l4 -18l2 -5q36 -170 77 -178q18 -4 35 -4q14 0 26 3q6 2 11 4q32 10 84 40q5 4 12 5q5 1 11 1q14 -2 21 -12q5 -8 7 -17q1 -4 1 -9v-3q0 -13 -8 -20q-43 -37 -118 -54l-35 -6q-19 -3 -36 -3q-70 0 -99 48q-30 52 -58 179v3l-10 49q-46 4 -85 10q-14 3 -14 27v9
q3 32 23 32q34 -4 65 -7q-11 90 -15 199q-2 43 -2 77q0 113 21 120l6 2q8 1 17 1h10q19 -3 22 -20l1 -3q-2 -61 -2 -118q0 -148 15 -262h92q62 3 136 7h1q4 2 8 2h1q19 0 28 -26v-13q0 -24 -17 -34q-22 -2 -44 -3l-59 -2q-43 -2 -83 -2q-27 0 -52 1z" />
    <glyph glyph-name="u" unicode="u" horiz-adv-x="443" 
d="M321 109q-6 -11 -14 -22q-65 -100 -145 -100h-3q-8 0 -17 2q-76 23 -96.5 131t-20.5 209v2q0 24 33 25h2q33 0 35 -30q0 -62 11 -155t44 -111l8 -2q39 0 92 71.5t63 220.5q1 -1 4 -2v2q8 15 36 15h12q25 -1 25 -33v-86q0 -113 28 -224v-1q0 -26 -35 -27h-5q-32 0 -35 16
q-19 73 -22 99z" />
    <glyph glyph-name="v" unicode="v" horiz-adv-x="349" 
d="M239 30q-1 -54 -45 -54h-4q-43 3 -43 52q0 7 1 15q-44 123 -61 166.5t-60 98.5h-1q-14 14 -14 29q0 13 11 27q14 12 28 12q12 0 25 -9q32 -48 64 -112q23 -47 52 -141q53 178 85 244q34 70 55 74q8 8 23 8q9 0 20 -3q21 -24 21 -43q0 -14 -12 -25q-24 -5 -43.5 -35.5
t-101.5 -303.5z" />
    <glyph glyph-name="w" unicode="w" horiz-adv-x="582" 
d="M296 213l-57 -183q-1 -54 -45 -54h-4q-43 3 -43 52q0 7 1 15q-44 123 -61 166.5t-60 98.5h-1q-14 14 -14 29q0 13 11 27q14 12 28 12q12 0 25 -9q32 -48 64 -112q23 -47 52 -141q33 110 41 148q3 13 3 23q0 21 -10 33q-7 7 -7 15q0 14 14 31q14 12 28 12q11 0 22 -7
l43 -68l24 -46q23 -47 52 -141q53 178 85 244q34 70 55 74q8 8 23 8q9 0 20 -3q21 -24 21 -43q0 -14 -12 -25q-24 -5 -43.5 -35.5t-101.5 -303.5q-1 -54 -45 -54h-4q-43 3 -43 52q0 7 1 15q-44 123 -61 167q-1 1 -1 3z" />
    <glyph glyph-name="x" unicode="x" horiz-adv-x="326" 
d="M189 176l4 -4q71 -62 135 -100q18 -11 18 -27q0 -7 -4 -15q-1 -3 -3 -6q-12 -18 -30 -18q-10 0 -22 6q-66 38 -126 88l-2 2l-47 -118q-12 -40 -39 -40q-8 0 -18 4q-20 7 -20 24q0 19 23 47l49 128l-4 4q-43 41 -83 89q-20 15 -20 32q0 8 4 16q14 25 32 25q8 0 17 -4l5 -2
q38 -43 76 -79l4 -4q25 62 39 91q34 70 55 74q8 8 23 8q9 0 20 -3q21 -24 21 -43q0 -14 -12 -25q-24 -5 -43 -35q-12 -18 -52 -115z" />
    <glyph glyph-name="y" unicode="y" horiz-adv-x="465" 
d="M358 176q-17 -56 -46 -99q-65 -100 -145 -100h-3q-8 0 -17 2q-76 24 -96.5 132t-20.5 231v1q0 25 33 26h2q33 0 35 -31q0 -84 11 -177t44 -110l8 -2q39 0 92 71q52 70 62 226q0 20 17 27q11 4 29 4l9 -1q24 -1 48.5 -139.5t24.5 -222.5v-3q0 -82 -19 -139
q-22 -65 -123 -72q-18 -2 -34 -2q-78 0 -128 28q-10 6 -12 21q-1 5 -1 9q0 10 3 17q5 13 18 17q5 2 11 2t13 -3q56 -19 89 -22q6 -1 12 -1q28 0 60 14q38 16 38 141v6q0 67 -14 149z" />
    <glyph glyph-name="z" unicode="z" horiz-adv-x="464" 
d="M221 279q-19 -3 -39 -4l-57 -1q-44 2 -90 10h-5q-14 0 -22 10q-4 6 -6 14q-2 10 -2 18q0 14 6 22q5 5 11 8l4 2q42 -7 81 -8l60 -1q70 1 123 16q4 1 7 1q10 0 17 -9q3 -5 5 -13q1 -3 2 -7t1 -8q0 -12 -5 -20q0 -7 -3 -16q-29 -65 -71 -125l-42 -59l-39 -46h31l78 1
q89 6 158 23q6 2 11 2q11 0 19 -8q5 -5 7 -14q2 -2 2 -6q1 -5 1 -10q0 -14 -9 -23q-7 -7 -19 -11q-70 -19 -144 -25l-73 -4h-16q-49 0 -100 5q-6 -1 -11 -1q-15 0 -23 9q-5 5 -8 13q-12 8 -13 20v4q0 6 2 13l1 4q37 40 68 78l47 60q32 44 55 86z" />
    <glyph glyph-name="braceleft" unicode="{" horiz-adv-x="344" 
d="M189 155q0 -41 -7 -85q-13 -81 -13 -132q0 -35 6 -56q15 -47 42 -47q12 0 28 10q9 10 18 10t18 -10q11 -12 11 -26q0 -8 -3 -16q-25 -31 -80 -37q-4 -1 -8 -1q-49 0 -77 65q-18 40 -18 106q0 45 8 100q11 78 11 128q0 38 -7 60q-11 38 -32 45h-2q-32 0 -34 36v3
q0 33 36 38q21 7 32 46q7 21 7 59q0 51 -11 129q-8 55 -8 99q0 66 18 107q28 64 77 64h8q55 -6 80 -38q5 -10 5 -19q0 -12 -10 -22q-9 -9 -19 -9t-20 8q-16 11 -28 11q-27 0 -42 -48q-6 -20 -6 -56q0 -51 13 -131q7 -45 7 -85q0 -86 -31 -153q31 -68 31 -153z" />
    <glyph glyph-name="bar" unicode="|" horiz-adv-x="300" 
d="M129 789h3q17 -1 26 -11q3 -4 6 -10q1 -2 1 -4q35 -247 35 -501q0 -77 -3 -159q0 -27 -2 -55q-2 -100 -8 -201q-2 -17 -12 -26q-3 -3 -7 -5q-6 -4 -14 -5h-8q-13 1 -21 9q-2 3 -3 7q-3 6 -4 15q5 95 8 188v31q3 86 3 170q0 248 -29 526v4q0 12 8 19q3 3 6 5q6 2 15 3z
" />
    <glyph glyph-name="braceright" unicode="}" horiz-adv-x="344" 
d="M187 308q-32 67 -32 153q0 40 7 85q13 80 13 131q0 36 -6 56q-15 48 -41 48q-13 0 -28 -11q-11 -8 -21 -8t-18 9q-11 10 -11 22q0 9 6 19q24 32 79 38h9q48 0 77 -64q18 -41 18 -107q0 -44 -8 -99q-12 -78 -12 -129q0 -38 7 -59q12 -39 32 -46q36 -5 36 -38v-3
q-2 -36 -34 -36h-2q-20 -7 -32 -45q-7 -22 -7 -60q0 -50 12 -128q8 -55 8 -100q0 -66 -18 -106q-29 -65 -77 -65q-5 0 -9 1q-55 6 -79 37q-4 8 -4 16q0 14 12 26q8 10 18 10q8 0 18 -10q15 -10 28 -10q26 0 41 47q6 21 6 56q0 51 -13 132q-7 44 -7 85q0 85 32 153z" />
    <glyph glyph-name="asciitilde" unicode="~" horiz-adv-x="315" 
d="M210 487v4l1 3q0 6 3 13q4 7 15 12q6 2 10 2q6 0 15 -3q6 -6 10 -15q1 -5 1 -10v-12q-2 -11 -5 -22q-1 -4 -3 -7q-12 -26 -44 -26l-3 -1h-8q-29 3 -60 27q-26 19 -36 20q-1 -2 -1 -6q-1 -2 -1 -5q0 -8 -3 -15q-3 -9 -14 -14q-7 -1 -11 -1h-1q-7 0 -14 4q-7 5 -11 15v22
q1 10 5 22q2 5 3 6q12 25 46 27h9q29 -3 61 -26q25 -19 34 -20q1 2 2 6z" />
    <glyph glyph-name="exclamdown" unicode="&#xa1;" horiz-adv-x="216" 
d="M110 177q32 -271 32 -405q0 -43 -1 -75v-6q0 -52 -29 -55h4q0 -3 -2 -3q-3 0 -8 4q-4 -1 -9 -1q-31 0 -31 51v17q3 42 3 99q0 130 -29 376q4 32 29 32h2q38 -5 39 -34zM63 292q-34 0 -40 39v16q0 45 17 45q12 5 24 5q26 0 35 -22q7 -17 7 -41v-8q0 -26 -30 -33
q-7 -1 -13 -1z" />
    <glyph glyph-name="cent" unicode="&#xa2;" horiz-adv-x="504" 
d="M175 0h-1q-63 0 -97 25q-30 21 -35 59q-2 10 -2 20q0 31 14 74q17 56 80 126.5t121 97.5q11 5 22 9q7 46 12 91l1 2q2 7 10 8q3 1 6 1q6 0 13 -2l4 -1q14 -5 21 -14q3 -3 4 -7l1 -4q-1 -27 -4 -55h10q4 0 13 -1q70 0 70 -81v-14q0 -5 -1 -11q-5 -28 -34 -33q-5 -2 -11 -2
h-3q-22 0 -22 20v5q-4 34 -16 36q-6 2 -13 2h-3q-19 -125 -63 -266q64 19 141 74q13 6 22 6q4 0 8 -1q10 -2 17 -15q4 -9 4 -19q0 -7 -2 -14q-2 -8 -9 -16q-80 -72 -201 -93q-3 -1 -6 -1q-13 -39 -28 -77q-4 -9 -14 -11q-4 -1 -8 -1q-6 0 -14 2q-4 1 -6 1q-12 5 -18 12
q-1 2 -2 5t-1 6v3zM261 320q-29 -19 -56 -46q-33 -33 -59 -79t-26 -77q0 -24 12 -31q20 -14 57 -14h9q39 125 63 247z" />
    <glyph glyph-name="brokenbar" unicode="&#xa6;" horiz-adv-x="300" 
d="M129 773h3q17 0 26 -5q3 -1 6 -4q1 -1 1 -2q35 -106 35 -215q0 -33 -3 -69q0 -11 -2 -23q-2 -43 -8 -87q-2 -7 -12 -11q-3 -1 -7 -2q-6 -2 -14 -2h-8q-13 0 -21 4q-2 1 -3 3q-3 2 -4 6q5 41 8 81v13q3 37 3 73q0 107 -29 227v1q0 6 8 9l6 2q6 1 15 1zM129 215h3
q17 0 26 -5q3 -1 6 -4q1 -1 1 -2q35 -106 35 -215q0 -33 -3 -68q0 -12 -2 -24q-2 -43 -8 -87q-2 -7 -12 -11q-3 -1 -7 -2q-6 -2 -14 -2h-8q-13 0 -21 4q-2 1 -3 3q-3 2 -4 6q5 41 8 81v14q3 36 3 73q0 106 -29 226v2q0 5 8 8l6 2q6 1 15 1z" />
    <glyph glyph-name="dieresis" unicode="&#xa8;" horiz-adv-x="336" 
d="M100 551q37 0 45 -36v-14q0 -43 -19 -43q-15 -4 -27 -4q-30 0 -40 20q-9 16 -9 38v8q0 24 35 30q8 1 15 1zM240 551q38 0 45 -36q1 -8 1 -14q0 -43 -20 -43q-14 -4 -27 -4q-29 0 -40 20q-9 16 -9 38q0 4 1 8q0 24 34 30q8 1 15 1z" />
    <glyph glyph-name="ordfeminine" unicode="&#xaa;" horiz-adv-x="373" 
d="M278 751q7 0 12 -1q17 -5 17 -38q-1 -9 -4 -21q5 -89 30 -147v-4q-1 -11 -7 -17q-8 -6 -24 -7h-3q-13 0 -17 8q-24 61 -24 82q-25 -86 -108 -103q-31 -6 -53 -6h-5q-11 1 -19 3q-24 8 -29 21q-4 9 -4 21v4q0 14 6 31q6 20 18 44q34 69 128 92q-93 -11 -106 -11h-3
q-4 2 -6 2q-14 3 -15 17v6q0 4 1 8q3 7 11 9q140 3 175 7h29zM106 602q-15 -22 -19 -36q-1 -5 -1 -9v-2q0 -12 12 -15q2 -1 7 -1h1q11 0 27 4q68 17 98 112q4 13 7 27q-80 -2 -132 -80zM323 465v-4q-2 -18 -27 -20q-86 0 -208 -16h-4q-24 0 -24 23v3q2 19 31 23
q90 13 193 13h9q30 -1 30 -22z" />
    <glyph glyph-name="guillemotleft" unicode="&#xab;" horiz-adv-x="492" 
d="M57 229l129 145q18 24 38 24q7 0 14 -3q21 -8 21 -28q0 -9 -3 -18l-133 -152l131 -147q3 -10 3 -19q0 -20 -21 -28q-7 -3 -14 -3q-21 0 -39 24l-131 149q-12 14 -12 27t13 26q2 1 4 3zM250 229l128 145q19 24 39 24q7 0 14 -3q21 -8 21 -28q0 -9 -3 -18l-133 -152
l131 -147q2 -10 2 -19q0 -20 -20 -28q-7 -3 -14 -3q-21 0 -39 24l-132 149q-11 14 -11 27t13 26q2 1 4 3z" />
    <glyph glyph-name="macron" unicode="&#xaf;" horiz-adv-x="325" 
d="M294 574q1 -6 1 -10q0 -30 -23 -37q-84 -24 -167 -24q-20 0 -40 1q-26 0 -33 32q-1 4 -1 6q-1 7 -1 14q0 27 19 33l4 2q21 -1 41 -1q97 0 168 18q3 2 6 2q20 0 26 -30v-6z" />
    <glyph glyph-name="acute" unicode="&#xb4;" horiz-adv-x="233" 
d="M11 494q0 9 8 17l2 2l140 119q10 9 20 9q12 0 24 -13l5 -5q12 -14 12 -27q0 -12 -11 -23l-144 -117q-9 -6 -17 -6q-12 0 -22 11l-3 3q-14 17 -14 30z" />
    <glyph glyph-name="periodcentered" unicode="&#xb7;" horiz-adv-x="238" 
d="M57 419q27 0 33 -32q1 -6 1 -13q0 -37 -13 -37q-13 -4 -22 -4q-22 0 -28 16q-8 16 -8 36v8q0 21 26 25q5 1 11 1z" />
    <glyph glyph-name="periodcentered" unicode="&#x2219;" horiz-adv-x="238" 
d="M57 419q27 0 33 -32q1 -6 1 -13q0 -37 -13 -37q-13 -4 -22 -4q-22 0 -28 16q-8 16 -8 36v8q0 21 26 25q5 1 11 1z" />
    <glyph glyph-name="cedilla" unicode="&#xb8;" horiz-adv-x="268" 
d="M201 5l-36 -53q53 -2 53 -37q0 -10 -4 -23l-3 -8q-29 -64 -92 -64q-61 0 -69 36q10 28 42 28q17 -18 38 -20h2q16 0 28 19l1 5q1 2 1 4q0 12 -36 14q-39 3 -39 20q0 3 1 7q2 5 7 11l55 61h51z" />
    <glyph glyph-name="ordmasculine" unicode="&#xba;" horiz-adv-x="343" 
d="M135 743q14 8 27 8h2q15 0 29 -9q27 -18 39 -65q5 -24 6 -52l1 -12q0 -20 -3 -42q-6 -59 -45 -82q-17 -10 -33 -10h-2q-20 0 -38 15q-33 28 -39 86l-2 20v10q0 39 12 72q14 44 46 61zM137 666q-10 -28 -10 -55v-5q1 -11 3 -21q7 -40 19 -54q6 -8 12 -8t12 6q13 13 18 56
q1 13 1 26v8q-1 25 -8 49q-11 40 -21 40q-12 -1 -26 -42zM303 457v-5q-2 -17 -27 -19q-86 0 -207 -16h-4q-25 0 -25 22v4q2 18 31 23q91 12 193 12h9q30 0 30 -21z" />
    <glyph glyph-name="guillemotright" unicode="&#xbb;" horiz-adv-x="492" 
d="M246 226q13 -13 13 -26t-12 -27l-131 -149q-18 -24 -39 -24q-7 0 -14 3q-21 8 -21 28q0 9 3 19l131 147l-133 152q-3 9 -3 18q0 20 21 28q7 3 14 3q20 0 38 -24l129 -145q2 -2 4 -3zM439 226q13 -13 13 -26t-12 -27l-131 -149q-19 -24 -39 -24q-7 0 -14 3q-21 8 -21 28
q0 9 3 19l130 147l-132 152q-3 9 -3 18q0 20 20 28q7 3 14 3q21 0 39 -24l128 -145q2 -2 5 -3z" />
    <glyph glyph-name="questiondown" unicode="&#xbf;" horiz-adv-x="355" 
d="M201 200v-8q0 -98 -86 -185q-88 -91 -105 -176q-1 -5 -1 -11q0 -66 46 -89q28 -14 59 -14q26 0 53 11q59 20 76 176q16 19 35 19h8q27 -7 29 -43q-27 -186 -120 -218q-45 -16 -85 -16t-75 18q-70 33 -85 109q-6 23 -6 46q0 50 23 96q29 67 95.5 141.5t69.5 144.5
q8 27 33 27h5q29 -3 31 -28zM127 307q-28 0 -33 34v14q0 38 14 38q11 4 19 4q22 0 29 -19q6 -15 6 -35v-7q0 -23 -25 -28q-5 -1 -10 -1z" />
    <glyph glyph-name="Agrave" unicode="&#xc0;" 
d="M257 767q23 0 28.5 -74.5t66.5 -318.5l45 37q12 8 24 8q14 0 26 -14q10 -11 10 -22q0 -9 -5 -16l-78 -75q0 -33 143 -340v-10q-17 -27 -42 -27q-4 0 -10 1q-30 0 -157 326q-145 -131 -249 -262q-14 -12 -26 -12t-21 13q-12 14 -12 28q0 11 7 22q69 95 119.5 300.5
t63.5 320.5t67 115zM149 190l129 134l-36 209q-23 -195 -93 -343zM315 819l-3 -3q-10 -11 -22 -11q-8 0 -17 6l-144 117q-11 11 -11 23q0 13 12 27l5 5q12 13 24 13q10 0 20 -9l140 -119l2 -2q8 -8 8 -17q0 -13 -14 -30z" />
    <glyph glyph-name="Aacute" unicode="&#xc1;" 
d="M257 767q23 0 28.5 -74.5t66.5 -318.5l45 37q12 8 24 8q14 0 26 -14q10 -11 10 -22q0 -9 -5 -16l-78 -75q0 -33 143 -340v-10q-17 -27 -42 -27q-4 0 -10 1q-30 0 -157 326q-145 -131 -249 -262q-14 -12 -26 -12t-21 13q-12 14 -12 28q0 11 7 22q69 95 119.5 300.5
t63.5 320.5t67 115zM149 190l129 134l-36 209q-23 -195 -93 -343zM188 849q0 9 8 17l2 2l140 119q10 9 20 9q12 0 24 -13l5 -5q12 -14 12 -27q0 -12 -11 -23l-144 -117q-9 -6 -17 -6q-12 0 -22 11l-3 3q-14 17 -14 30z" />
    <glyph glyph-name="Acircumflex" unicode="&#xc2;" 
d="M257 767q23 0 28.5 -74.5t66.5 -318.5l45 37q12 8 24 8q14 0 26 -14q10 -11 10 -22q0 -9 -5 -16l-78 -75q0 -33 143 -340v-10q-17 -27 -42 -27q-4 0 -10 1q-30 0 -157 326q-145 -131 -249 -262q-14 -12 -26 -12t-21 13q-12 14 -12 28q0 11 7 22q69 95 119.5 300.5
t63.5 320.5t67 115zM149 190l129 134l-36 209q-23 -195 -93 -343zM263 979q28 -2 33 -23q68 -80 108 -117q4 -7 4 -12q0 -13 -18 -23q-12 -6 -21 -6q-12 0 -20 10q-45 56 -90 102q-45 -46 -90 -102q-8 -10 -20 -10q-9 0 -20 6q-19 10 -19 23q0 5 4 12q40 37 108 117
q5 21 33 23h8z" />
    <glyph glyph-name="Atilde" unicode="&#xc3;" 
d="M257 767q23 0 28.5 -74.5t66.5 -318.5l45 37q12 8 24 8q14 0 26 -14q10 -11 10 -22q0 -9 -5 -16l-78 -75q0 -33 143 -340v-10q-17 -27 -42 -27q-4 0 -10 1q-30 0 -157 326q-145 -131 -249 -262q-14 -12 -26 -12t-21 13q-12 14 -12 28q0 11 7 22q69 95 119.5 300.5
t63.5 320.5t67 115zM149 190l129 134l-36 209q-23 -195 -93 -343zM309 848l4 -1q3 0 4 3q1 2 2 7v4l1 3q0 7 3 13q4 7 12 11q5 1 8 1q5 0 11 -2q5 -5 9 -13q1 -6 1 -11v-12q-2 -11 -6 -23q-1 -4 -3 -7q-11 -24 -41 -24l-3 -1h-6q-27 3 -58 26q-29 21 -40 22q-2 1 -3 1
q-3 0 -5 -3q-1 -3 -1 -7q-1 -2 -1 -5q0 -8 -3 -15q-3 -8 -12 -12q-5 -1 -8 -1h-1q-5 0 -10 3q-6 4 -10 14v23q1 10 5 22l3 6q11 24 42 25h9q27 -2 58 -25q28 -21 39 -22z" />
    <glyph glyph-name="Adieresis" unicode="&#xc4;" 
d="M257 767q23 0 28.5 -74.5t66.5 -318.5l45 37q12 8 24 8q14 0 26 -14q10 -11 10 -22q0 -9 -5 -16l-78 -75q0 -33 143 -340v-10q-17 -27 -42 -27q-4 0 -10 1q-30 0 -157 326q-145 -131 -249 -262q-14 -12 -26 -12t-21 13q-12 14 -12 28q0 11 7 22q69 95 119.5 300.5
t63.5 320.5t67 115zM149 190l129 134l-36 209q-23 -195 -93 -343zM191 906q37 0 45 -36v-14q0 -43 -19 -43q-15 -4 -27 -4q-30 0 -40 20q-9 16 -9 38v8q0 24 35 30q8 1 15 1zM331 906q38 0 45 -36q1 -8 1 -14q0 -43 -20 -43q-14 -4 -27 -4q-29 0 -40 20q-9 16 -9 38q0 4 1 8
q0 24 34 30q8 1 15 1z" />
    <glyph glyph-name="Aring" unicode="&#xc5;" 
d="M257 767q23 0 28.5 -74.5t66.5 -318.5l45 37q12 8 24 8q14 0 26 -14q10 -11 10 -22q0 -9 -5 -16l-78 -75q0 -33 143 -340v-10q-17 -27 -42 -27q-4 0 -10 1q-30 0 -157 326q-145 -131 -249 -262q-14 -12 -26 -12t-21 13q-12 14 -12 28q0 11 7 22q69 95 119.5 300.5
t63.5 320.5t67 115zM149 190l129 134l-36 209q-23 -195 -93 -343zM293 997q16 -7 16 -28q0 -4 -1 -9q32 -17 32 -58q0 -76 -116 -116q-47 5 -47 38v4q0 40 42 105q-14 7 -14 18q0 7 4 14q0 11 84 32zM235 849q5 0 29 15q19 12 19 33q0 5 -1 10q-10 0 -28.5 -20.5
t-18.5 -37.5z" />
    <glyph glyph-name="AE" unicode="&#xc6;" horiz-adv-x="762" 
d="M274 320q0 15 -1 30l-31 183q-23 -195 -93 -343zM281 728q10 11 28 11q34 0 36 -35v-20l278 37q10 3 18 3q24 0 32 -29v-12q0 -31 -36 -37l-299 -43v-261l173 8q18 7 30 7q28 0 31 -27q1 -6 1 -8q0 -34 -42 -40l-181 -13q24 -222 122 -222h21q87 0 151 35q70 40 80 40
q12 0 25 -12q13 -13 13 -25q0 -11 -8 -21q-114 -88 -270 -88q-26 0 -55 4q-116 28 -146 240q-129 -120 -224 -240q-14 -12 -26 -12t-21 13q-12 14 -12 28q0 11 7 22q69 95 119.5 300.5t63.5 320.5t67 115q17 0 24 -39z" />
    <glyph glyph-name="Ccedilla" unicode="&#xc7;" horiz-adv-x="509" 
d="M278 -22h-3q-141 0 -194 105q-22 43 -28 159q-1 15 -1 30q0 102 38 207q43 121 92 202.5t113 91.5q4 1 8 1q3 1 4 1q2 0 3 -1q88 -6 105.5 -62.5t21.5 -79.5l1 -11v-8q0 -16 -7 -26q-9 -11 -20 -12h-3q-1 1 -3 1q-1 0 -3 -1q-17 4 -24 16q-10 27 -15 57q-2 10 -4 19v3
q-7 25 -43 25h-7q0 -1 -1 -2q-49 -6 -82 -73t-70 -161q-33 -85 -33 -172q0 -11 1 -21q4 -99 18 -131q38 -91 136 -91h2l26 2q67 10 157 120q21 17 34 17q21 0 24 -39q-99 -135 -182 -159l-22 -33q53 -2 53 -37q0 -10 -4 -23l-3 -8q-29 -64 -92 -64q-61 0 -69 36q10 28 42 28
q17 -18 38 -20h2q16 0 28 19l1 5q1 2 1 4q0 12 -36 14q-39 3 -39 20q0 3 1 7q2 5 7 11z" />
    <glyph glyph-name="Egrave" unicode="&#xc8;" horiz-adv-x="524" 
d="M71 739q34 0 36 -35v-20l278 37q10 3 18 3q24 0 32 -29v-12q0 -31 -36 -37l-299 -43v-261l173 8q18 7 30 7q28 0 31 -27q1 -6 1 -8q0 -34 -42 -40l-181 -13q24 -222 122 -222h21q87 0 151 35q70 40 80 40q12 0 25 -12q13 -13 13 -25q0 -11 -8 -21q-114 -88 -270 -88
q-26 0 -55 4q-156 38 -156 410v314q3 35 36 35zM336 819l-3 -3q-10 -11 -22 -11q-8 0 -17 6l-144 117q-11 11 -11 23q0 13 12 27l5 5q12 13 24 13q10 0 20 -9l140 -119l2 -2q8 -8 8 -17q0 -13 -14 -30z" />
    <glyph glyph-name="Eacute" unicode="&#xc9;" horiz-adv-x="524" 
d="M71 739q34 0 36 -35v-20l278 37q10 3 18 3q24 0 32 -29v-12q0 -31 -36 -37l-299 -43v-261l173 8q18 7 30 7q28 0 31 -27q1 -6 1 -8q0 -34 -42 -40l-181 -13q24 -222 122 -222h21q87 0 151 35q70 40 80 40q12 0 25 -12q13 -13 13 -25q0 -11 -8 -21q-114 -88 -270 -88
q-26 0 -55 4q-156 38 -156 410v314q3 35 36 35zM209 849q0 9 8 17l2 2l140 119q10 9 20 9q12 0 24 -13l5 -5q12 -14 12 -27q0 -12 -11 -23l-144 -117q-9 -6 -17 -6q-12 0 -22 11l-3 3q-14 17 -14 30z" />
    <glyph glyph-name="Ecircumflex" unicode="&#xca;" horiz-adv-x="524" 
d="M71 739q34 0 36 -35v-20l278 37q10 3 18 3q24 0 32 -29v-12q0 -31 -36 -37l-299 -43v-261l173 8q18 7 30 7q28 0 31 -27q1 -6 1 -8q0 -34 -42 -40l-181 -13q24 -222 122 -222h21q87 0 151 35q70 40 80 40q12 0 25 -12q13 -13 13 -25q0 -11 -8 -21q-114 -88 -270 -88
q-26 0 -55 4q-156 38 -156 410v314q3 35 36 35zM284 979q28 -2 33 -23q68 -80 108 -117q4 -7 4 -12q0 -13 -18 -23q-12 -6 -21 -6q-12 0 -20 10q-45 56 -90 102q-45 -46 -90 -102q-8 -10 -20 -10q-9 0 -20 6q-19 10 -19 23q0 5 4 12q40 37 108 117q5 21 33 23h8z" />
    <glyph glyph-name="Edieresis" unicode="&#xcb;" horiz-adv-x="524" 
d="M71 739q34 0 36 -35v-20l278 37q10 3 18 3q24 0 32 -29v-12q0 -31 -36 -37l-299 -43v-261l173 8q18 7 30 7q28 0 31 -27q1 -6 1 -8q0 -34 -42 -40l-181 -13q24 -222 122 -222h21q87 0 151 35q70 40 80 40q12 0 25 -12q13 -13 13 -25q0 -11 -8 -21q-114 -88 -270 -88
q-26 0 -55 4q-156 38 -156 410v314q3 35 36 35zM212 906q37 0 45 -36v-14q0 -43 -19 -43q-15 -4 -27 -4q-30 0 -40 20q-9 16 -9 38v8q0 24 35 30q8 1 15 1zM352 906q38 0 45 -36q1 -8 1 -14q0 -43 -20 -43q-14 -4 -27 -4q-29 0 -40 20q-9 16 -9 38q0 4 1 8q0 24 34 30
q8 1 15 1z" />
    <glyph glyph-name="Igrave" unicode="&#xcc;" horiz-adv-x="180" 
d="M111 -33l-2 1q-31 0 -38 18q-31 274 -31 521v42q1 77 5 154q1 26 32 29h6q28 0 30 -25q-3 -73 -3 -144v-23q0 -239 30 -548v-2q0 -21 -29 -23zM146 819l-3 -3q-10 -11 -22 -11q-8 0 -17 6l-144 117q-11 11 -11 23q0 13 12 27l5 5q12 13 24 13q10 0 20 -9l140 -119l2 -2
q8 -8 8 -17q0 -13 -14 -30z" />
    <glyph glyph-name="Iacute" unicode="&#xcd;" horiz-adv-x="180" 
d="M111 -33l-2 1q-31 0 -38 18q-31 274 -31 521v42q1 77 5 154q1 26 32 29h6q28 0 30 -25q-3 -73 -3 -144v-23q0 -239 30 -548v-2q0 -21 -29 -23zM20 849q0 9 8 17l2 2l140 119q10 9 20 9q12 0 24 -13l5 -5q12 -14 12 -27q0 -12 -11 -23l-144 -117q-9 -6 -17 -6
q-12 0 -22 11l-3 3q-14 17 -14 30z" />
    <glyph glyph-name="Icircumflex" unicode="&#xce;" horiz-adv-x="180" 
d="M111 -33l-2 1q-31 0 -38 18q-31 274 -31 521v42q1 77 5 154q1 26 32 29h6q28 0 30 -25q-3 -73 -3 -144v-23q0 -239 30 -548v-2q0 -21 -29 -23zM94 979q28 -2 33 -23q68 -80 108 -117q4 -7 4 -12q0 -13 -18 -23q-12 -6 -21 -6q-12 0 -20 10q-45 56 -90 102
q-45 -46 -90 -102q-8 -10 -20 -10q-9 0 -20 6q-19 10 -19 23q0 5 4 12q40 37 108 117q5 21 33 23h8z" />
    <glyph glyph-name="Idieresis" unicode="&#xcf;" horiz-adv-x="180" 
d="M111 -33l-2 1q-31 0 -38 18q-31 274 -31 521v42q1 77 5 154q1 26 32 29h6q28 0 30 -25q-3 -73 -3 -144v-23q0 -239 30 -548v-2q0 -21 -29 -23zM22 906q37 0 45 -36v-14q0 -43 -19 -43q-15 -4 -27 -4q-30 0 -40 20q-9 16 -9 38v8q0 24 35 30q8 1 15 1zM162 906
q38 0 45 -36q1 -8 1 -14q0 -43 -20 -43q-14 -4 -27 -4q-29 0 -40 20q-9 16 -9 38q0 4 1 8q0 24 34 30q8 1 15 1z" />
    <glyph glyph-name="Eth" unicode="&#xd0;" horiz-adv-x="488" 
d="M483 346q0 -216 -129 -294q-127 -78 -177 -78q-9 0 -16 3q-13 14 -14 26q-10 -17 -30 -19h-4q-31 4 -34 51v33q0 95 -4 225q-6 154 -50 425q6 31 31 32h3q23 0 35 -25l37 -298q116 332 198 388q124 -113 150 -390h67q62 -1 62 -36q1 -2 1 -5q0 -2 -1 -3q-4 -31 -56 -34z
M422 345q-97 -4 -261 -20q-24 -92 -28 -173l6 -110l27 -3q254 46 256 306zM186 410q112 11 233 14q-15 190 -96 295q-89 -166 -137 -309z" />
    <glyph glyph-name="Ntilde" unicode="&#xd1;" horiz-adv-x="521" 
d="M117 502q0 -165 -4.5 -263.5t-13.5 -222.5v-2q0 -39 -32 -41q-2 -1 -6 -1q-30 0 -31 41q9 107 14 229q1 48 1 118q0 109 -4 272q18 36 40 36h5q25 -6 57 -79.5t237 -348.5q7 80 7 172q0 31 -1 63q-1 53 -1 101q0 63 2 113q2 34 31 34h3q31 -2 35 -33q-6 -70 -6 -168v-53
q1 -66 1 -129q0 -62 -1 -121q1 -45 39 -212q2 -5 2 -12v-1q0 -18 -21 -25q-11 -2 -19 -2q-10 0 -17 6q-9 9 -44.5 97t-87 168.5t-97 131t-88.5 132.5zM311 848l4 -1q3 0 4 3q1 2 2 7v4l1 3q0 7 3 13q4 7 12 11q5 1 8 1q5 0 11 -2q5 -5 9 -13q1 -6 1 -11v-12q-2 -11 -6 -23
q-1 -4 -3 -7q-11 -24 -41 -24l-3 -1h-6q-27 3 -58 26q-29 21 -40 22q-2 1 -3 1q-3 0 -5 -3q-1 -3 -1 -7q-1 -2 -1 -5q0 -8 -3 -15q-3 -8 -12 -12q-5 -1 -8 -1h-1q-5 0 -10 3q-6 4 -10 14v23q1 10 5 22l3 6q11 24 42 25h9q27 -2 58 -25q28 -21 39 -22z" />
    <glyph glyph-name="Ograve" unicode="&#xd2;" horiz-adv-x="506" 
d="M230 759q84 0 175 -155q81 -139 81 -291q0 -15 -1 -31q-10 -171 -89 -241q-75 -64 -169 -64h-13q-105 5 -149.5 99t-44.5 200q0 105 49 238.5t125 193.5v7q0 35 36 44zM90 279v-13q0 -104 45 -178q30 -46 87 -55q36 0 81 18q117 68 119 243v4q0 174 -115 324
q0 -101 -36 -113q-8 -1 -14 -1q-31 0 -32 37q14 44 14 67q0 17 -9 21q-35 0 -86 -121.5t-54 -232.5zM309 819l-3 -3q-10 -11 -22 -11q-8 0 -17 6l-144 117q-11 11 -11 23q0 13 12 27l5 5q12 13 24 13q10 0 20 -9l140 -119l2 -2q8 -8 8 -17q0 -13 -14 -30z" />
    <glyph glyph-name="Oacute" unicode="&#xd3;" horiz-adv-x="506" 
d="M230 759q84 0 175 -155q81 -139 81 -291q0 -15 -1 -31q-10 -171 -89 -241q-75 -64 -169 -64h-13q-105 5 -149.5 99t-44.5 200q0 105 49 238.5t125 193.5v7q0 35 36 44zM90 279v-13q0 -104 45 -178q30 -46 87 -55q36 0 81 18q117 68 119 243v4q0 174 -115 324
q0 -101 -36 -113q-8 -1 -14 -1q-31 0 -32 37q14 44 14 67q0 17 -9 21q-35 0 -86 -121.5t-54 -232.5zM183 849q0 9 8 17l2 2l140 119q10 9 20 9q12 0 24 -13l5 -5q12 -14 12 -27q0 -12 -11 -23l-144 -117q-9 -6 -17 -6q-12 0 -22 11l-3 3q-14 17 -14 30z" />
    <glyph glyph-name="Ocircumflex" unicode="&#xd4;" horiz-adv-x="506" 
d="M230 759q84 0 175 -155q81 -139 81 -291q0 -15 -1 -31q-10 -171 -89 -241q-75 -64 -169 -64h-13q-105 5 -149.5 99t-44.5 200q0 105 49 238.5t125 193.5v7q0 35 36 44zM90 279v-13q0 -104 45 -178q30 -46 87 -55q36 0 81 18q117 68 119 243v4q0 174 -115 324
q0 -101 -36 -113q-8 -1 -14 -1q-31 0 -32 37q14 44 14 67q0 17 -9 21q-35 0 -86 -121.5t-54 -232.5zM257 979q28 -2 33 -23q68 -80 108 -117q4 -7 4 -12q0 -13 -18 -23q-12 -6 -21 -6q-12 0 -20 10q-45 56 -90 102q-45 -46 -90 -102q-8 -10 -20 -10q-9 0 -20 6
q-19 10 -19 23q0 5 4 12q40 37 108 117q5 21 33 23h8z" />
    <glyph glyph-name="Otilde" unicode="&#xd5;" horiz-adv-x="506" 
d="M230 759q84 0 175 -155q81 -139 81 -291q0 -15 -1 -31q-10 -171 -89 -241q-75 -64 -169 -64h-13q-105 5 -149.5 99t-44.5 200q0 105 49 238.5t125 193.5v7q0 35 36 44zM90 279v-13q0 -104 45 -178q30 -46 87 -55q36 0 81 18q117 68 119 243v4q0 174 -115 324
q0 -101 -36 -113q-8 -1 -14 -1q-31 0 -32 37q14 44 14 67q0 17 -9 21q-35 0 -86 -121.5t-54 -232.5zM304 848l4 -1q3 0 4 3q1 2 2 7v4l1 3q0 7 3 13q4 7 12 11q5 1 8 1q5 0 11 -2q5 -5 9 -13q1 -6 1 -11v-12q-2 -11 -6 -23q-1 -4 -3 -7q-11 -24 -41 -24l-3 -1h-6
q-27 3 -58 26q-29 21 -40 22q-2 1 -3 1q-3 0 -5 -3q-1 -3 -1 -7q-1 -2 -1 -5q0 -8 -3 -15q-3 -8 -12 -12q-5 -1 -8 -1h-1q-5 0 -10 3q-6 4 -10 14v23q1 10 5 22l3 6q11 24 42 25h9q27 -2 58 -25q28 -21 39 -22z" />
    <glyph glyph-name="Odieresis" unicode="&#xd6;" horiz-adv-x="506" 
d="M230 759q84 0 175 -155q81 -139 81 -291q0 -15 -1 -31q-10 -171 -89 -241q-75 -64 -169 -64h-13q-105 5 -149.5 99t-44.5 200q0 105 49 238.5t125 193.5v7q0 35 36 44zM90 279v-13q0 -104 45 -178q30 -46 87 -55q36 0 81 18q117 68 119 243v4q0 174 -115 324
q0 -101 -36 -113q-8 -1 -14 -1q-31 0 -32 37q14 44 14 67q0 17 -9 21q-35 0 -86 -121.5t-54 -232.5zM185 906q37 0 45 -36v-14q0 -43 -19 -43q-15 -4 -27 -4q-30 0 -40 20q-9 16 -9 38v8q0 24 35 30q8 1 15 1zM325 906q38 0 45 -36q1 -8 1 -14q0 -43 -20 -43q-14 -4 -27 -4
q-29 0 -40 20q-9 16 -9 38q0 4 1 8q0 24 34 30q8 1 15 1z" />
    <glyph glyph-name="Oslash" unicode="&#xd8;" horiz-adv-x="506" 
d="M326 596q-9 13 -19 26q0 -101 -36 -113q-8 -1 -14 -1q-31 0 -32 37q14 44 14 67q0 17 -9 21q-35 0 -86 -121.5t-54 -232.5v-13q0 -76 24 -135q5 11 11 22l13 26q107 212 188 417zM372 518q-64 -159 -153 -336l-23 -44l-39 -75q26 -24 65 -30q36 0 81 18q117 68 119 243v4
q0 115 -50 220zM75 56q-6 9 -10 20q-45 94 -45 200q0 105 49 238.5t125 193.5v7q0 35 36 44q62 0 127 -83q24 64 45 127l1 3q5 10 15 12q3 1 7 1q6 0 14 -3l4 -2q14 -7 18 -19q2 -5 2 -11v-5q-25 -84 -58 -175q81 -139 81 -291q0 -15 -1 -31q-10 -171 -89 -241
q-75 -64 -169 -64h-13q-52 2 -89 27l-14 -26q-8 -13 -20 -16q-4 -1 -9 -1q-7 0 -15 3q-4 1 -6 2q-12 7 -16 17q-1 3 -1 7q0 6 3 13z" />
    <glyph glyph-name="Ugrave" unicode="&#xd9;" horiz-adv-x="508" 
d="M389 206q-70 -218 -204 -225q-87 10 -122 158q-28 116 -28 358q0 74 2 158v11q11 20 33 20q7 0 16 -3q19 -12 19 -48v-88q-1 -49 -1 -96q0 -394 78 -394h2q111 12 195 344q-2 70 -2 87v42q1 37 5 114q2 26 32 29h6q28 0 30 -25q-3 -73 -3 -104v-23q0 -210 30 -519v-2
q0 -21 -27 -23l-4 1q-30 0 -38 18q-11 101 -19 210zM312 819l-3 -3q-10 -11 -22 -11q-8 0 -17 6l-144 117q-11 11 -11 23q0 13 12 27l5 5q12 13 24 13q10 0 20 -9l140 -119l2 -2q8 -8 8 -17q0 -13 -14 -30z" />
    <glyph glyph-name="Uacute" unicode="&#xda;" horiz-adv-x="508" 
d="M389 206q-70 -218 -204 -225q-87 10 -122 158q-28 116 -28 358q0 74 2 158v11q11 20 33 20q7 0 16 -3q19 -12 19 -48v-88q-1 -49 -1 -96q0 -394 78 -394h2q111 12 195 344q-2 70 -2 87v42q1 37 5 114q2 26 32 29h6q28 0 30 -25q-3 -73 -3 -104v-23q0 -210 30 -519v-2
q0 -21 -27 -23l-4 1q-30 0 -38 18q-11 101 -19 210zM186 849q0 9 8 17l2 2l140 119q10 9 20 9q12 0 24 -13l5 -5q12 -14 12 -27q0 -12 -11 -23l-144 -117q-9 -6 -17 -6q-12 0 -22 11l-3 3q-14 17 -14 30z" />
    <glyph glyph-name="Ucircumflex" unicode="&#xdb;" horiz-adv-x="508" 
d="M389 206q-70 -218 -204 -225q-87 10 -122 158q-28 116 -28 358q0 74 2 158v11q11 20 33 20q7 0 16 -3q19 -12 19 -48v-88q-1 -49 -1 -96q0 -394 78 -394h2q111 12 195 344q-2 70 -2 87v42q1 37 5 114q2 26 32 29h6q28 0 30 -25q-3 -73 -3 -104v-23q0 -210 30 -519v-2
q0 -21 -27 -23l-4 1q-30 0 -38 18q-11 101 -19 210zM260 979q28 -2 33 -23q68 -80 108 -117q4 -7 4 -12q0 -13 -18 -23q-12 -6 -21 -6q-12 0 -20 10q-45 56 -90 102q-45 -46 -90 -102q-8 -10 -20 -10q-9 0 -20 6q-19 10 -19 23q0 5 4 12q40 37 108 117q5 21 33 23h8z" />
    <glyph glyph-name="Udieresis" unicode="&#xdc;" horiz-adv-x="508" 
d="M389 206q-70 -218 -204 -225q-87 10 -122 158q-28 116 -28 358q0 74 2 158v11q11 20 33 20q7 0 16 -3q19 -12 19 -48v-88q-1 -49 -1 -96q0 -394 78 -394h2q111 12 195 344q-2 70 -2 87v42q1 37 5 114q2 26 32 29h6q28 0 30 -25q-3 -73 -3 -104v-23q0 -210 30 -519v-2
q0 -21 -27 -23l-4 1q-30 0 -38 18q-11 101 -19 210zM188 906q37 0 45 -36v-14q0 -43 -19 -43q-15 -4 -27 -4q-30 0 -40 20q-9 16 -9 38v8q0 24 35 30q8 1 15 1zM328 906q38 0 45 -36q1 -8 1 -14q0 -43 -20 -43q-14 -4 -27 -4q-29 0 -40 20q-9 16 -9 38q0 4 1 8q0 24 34 30
q8 1 15 1z" />
    <glyph glyph-name="Yacute" unicode="&#xdd;" horiz-adv-x="336" 
d="M321 706q13 17 27 17h5q6 -1 12 -5q18 -13 18 -42q0 -8 -1 -18q-123 -454 -190.5 -616.5t-165.5 -227.5q-5 -3 -12 -3q-19 0 -35 21q-3 8 -3 17q0 19 17 33q104 106 153 238.5t60 219.5q-148 222 -234 271q-3 8 -3 16q0 4 1 8q2 9 7 20q11 18 26 18h6l4 -1
q45 -10 225 -243zM106 849q0 9 8 17l2 2l140 119q10 9 20 9q12 0 24 -13l5 -5q12 -14 12 -27q0 -12 -11 -23l-144 -117q-9 -6 -17 -6q-12 0 -22 11l-3 3q-14 17 -14 30z" />
    <glyph glyph-name="Thorn" unicode="&#xde;" horiz-adv-x="507" 
d="M47 767h1q36 -8 51 -69q26 -122 51 -270q51 147 99.5 203t77.5 68q12 6 26 6q6 0 12 -1q72 -19 95 -107q12 -45 12 -96q0 -24 -3 -49q-3 -24 -7 -49q-22 -105 -98 -138q-43 -19 -101 -19q-45 0 -98 11q-2 -250 -7 -301q-2 -19 -5 -29q-8 -28 -31 -28q-3 0 -7 1h-2
q-27 6 -31 43q2 13 4 29q4 35 4 115q0 62 -3 153q-17 279 -75 481v17q4 30 26 30q4 0 9 -1zM194 319q32 -7 59 -7q134 0 154 179q2 18 2 33q0 78 -47 110q-95 -51 -168 -315z" />
    <glyph glyph-name="agrave" unicode="&#xe0;" horiz-adv-x="451" 
d="M318 242q-156 -30 -210 -119q-20 -33 -20 -52q0 -25 43 -25q10 0 22 1q105 11 165 195zM344 140q-47 -145 -187 -157q-17 -1 -32 -1q-113 0 -113 78q0 25 13 60q49 127 263 181q-73 -16 -111 -16q-43 0 -92 2l-9 1q-21 1 -44 3q-22 10 -22 34q0 4 1 8v6q10 26 33 26h2
q4 0 5 -1l1 1q27 -5 85 -8h43q41 0 73 2q48 2 104 7q25 0 29 -33v-11q1 -2 2 -5q2 -10 8.5 -56.5t21 -107t32.5 -127.5v-1q2 -4 3 -7v-5q0 -15 -21 -25l-7 -2q-9 -3 -17 -3q-18 0 -28 12l-11 40l-13 54q-7 27 -12 51zM288 464l-3 -3q-10 -11 -22 -11q-8 0 -17 6l-144 117
q-11 11 -11 23q0 13 12 27l5 5q12 13 24 13q10 0 20 -9l140 -119l2 -2q8 -8 8 -17q0 -13 -14 -30z" />
    <glyph glyph-name="aacute" unicode="&#xe1;" horiz-adv-x="451" 
d="M318 242q-156 -30 -210 -119q-20 -33 -20 -52q0 -25 43 -25q10 0 22 1q105 11 165 195zM344 140q-47 -145 -187 -157q-17 -1 -32 -1q-113 0 -113 78q0 25 13 60q49 127 263 181q-73 -16 -111 -16q-43 0 -92 2l-9 1q-21 1 -44 3q-22 10 -22 34q0 4 1 8v6q10 26 33 26h2
q4 0 5 -1l1 1q27 -5 85 -8h43q41 0 73 2q48 2 104 7q25 0 29 -33v-11q1 -2 2 -5q2 -10 8.5 -56.5t21 -107t32.5 -127.5v-1q2 -4 3 -7v-5q0 -15 -21 -25l-7 -2q-9 -3 -17 -3q-18 0 -28 12l-11 40l-13 54q-7 27 -12 51zM161 494q0 9 8 17l2 2l140 119q10 9 20 9q12 0 24 -13
l5 -5q12 -14 12 -27q0 -12 -11 -23l-144 -117q-9 -6 -17 -6q-12 0 -22 11l-3 3q-14 17 -14 30z" />
    <glyph glyph-name="acircumflex" unicode="&#xe2;" horiz-adv-x="451" 
d="M318 242q-156 -30 -210 -119q-20 -33 -20 -52q0 -25 43 -25q10 0 22 1q105 11 165 195zM344 140q-47 -145 -187 -157q-17 -1 -32 -1q-113 0 -113 78q0 25 13 60q49 127 263 181q-73 -16 -111 -16q-43 0 -92 2l-9 1q-21 1 -44 3q-22 10 -22 34q0 4 1 8v6q10 26 33 26h2
q4 0 5 -1l1 1q27 -5 85 -8h43q41 0 73 2q48 2 104 7q25 0 29 -33v-11q1 -2 2 -5q2 -10 8.5 -56.5t21 -107t32.5 -127.5v-1q2 -4 3 -7v-5q0 -15 -21 -25l-7 -2q-9 -3 -17 -3q-18 0 -28 12l-11 40l-13 54q-7 27 -12 51zM236 624q28 -2 33 -23q68 -80 108 -117q4 -7 4 -12
q0 -13 -18 -23q-12 -6 -21 -6q-12 0 -20 10q-45 56 -90 102q-45 -46 -90 -102q-8 -10 -20 -10q-9 0 -20 6q-19 10 -19 23q0 5 4 12q40 37 108 117q5 21 33 23h8z" />
    <glyph glyph-name="atilde" unicode="&#xe3;" horiz-adv-x="451" 
d="M318 242q-156 -30 -210 -119q-20 -33 -20 -52q0 -25 43 -25q10 0 22 1q105 11 165 195zM344 140q-47 -145 -187 -157q-17 -1 -32 -1q-113 0 -113 78q0 25 13 60q49 127 263 181q-73 -16 -111 -16q-43 0 -92 2l-9 1q-21 1 -44 3q-22 10 -22 34q0 4 1 8v6q10 26 33 26h2
q4 0 5 -1l1 1q27 -5 85 -8h43q41 0 73 2q48 2 104 7q25 0 29 -33v-11q1 -2 2 -5q2 -10 8.5 -56.5t21 -107t32.5 -127.5v-1q2 -4 3 -7v-5q0 -15 -21 -25l-7 -2q-9 -3 -17 -3q-18 0 -28 12l-11 40l-13 54q-7 27 -12 51zM282 493l4 -1q3 0 4 3q1 2 2 7v4l1 3q0 7 3 13
q4 7 12 11q5 1 8 1q5 0 11 -2q5 -5 9 -13q1 -6 1 -11v-12q-2 -11 -6 -23q-1 -4 -3 -7q-11 -24 -41 -24l-3 -1h-6q-27 3 -58 26q-29 21 -40 22q-2 1 -3 1q-3 0 -5 -3q-1 -3 -1 -7q-1 -2 -1 -5q0 -8 -3 -15q-3 -8 -12 -12q-5 -1 -8 -1h-1q-5 0 -10 3q-6 4 -10 14v23q1 10 5 22
l3 6q11 24 42 25h9q27 -2 58 -25q28 -21 39 -22z" />
    <glyph glyph-name="adieresis" unicode="&#xe4;" horiz-adv-x="451" 
d="M318 242q-156 -30 -210 -119q-20 -33 -20 -52q0 -25 43 -25q10 0 22 1q105 11 165 195zM344 140q-47 -145 -187 -157q-17 -1 -32 -1q-113 0 -113 78q0 25 13 60q49 127 263 181q-73 -16 -111 -16q-43 0 -92 2l-9 1q-21 1 -44 3q-22 10 -22 34q0 4 1 8v6q10 26 33 26h2
q4 0 5 -1l1 1q27 -5 85 -8h43q41 0 73 2q48 2 104 7q25 0 29 -33v-11q1 -2 2 -5q2 -10 8.5 -56.5t21 -107t32.5 -127.5v-1q2 -4 3 -7v-5q0 -15 -21 -25l-7 -2q-9 -3 -17 -3q-18 0 -28 12l-11 40l-13 54q-7 27 -12 51zM164 551q37 0 45 -36v-14q0 -43 -19 -43q-15 -4 -27 -4
q-30 0 -40 20q-9 16 -9 38v8q0 24 35 30q8 1 15 1zM304 551q38 0 45 -36q1 -8 1 -14q0 -43 -20 -43q-14 -4 -27 -4q-29 0 -40 20q-9 16 -9 38q0 4 1 8q0 24 34 30q8 1 15 1z" />
    <glyph glyph-name="aring" unicode="&#xe5;" horiz-adv-x="451" 
d="M318 242q-156 -30 -210 -119q-20 -33 -20 -52q0 -25 43 -25q10 0 22 1q105 11 165 195zM344 140q-47 -145 -187 -157q-17 -1 -32 -1q-113 0 -113 78q0 25 13 60q49 127 263 181q-73 -16 -111 -16q-43 0 -92 2l-9 1q-21 1 -44 3q-22 10 -22 34q0 4 1 8v6q10 26 33 26h2
q4 0 5 -1l1 1q27 -5 85 -8h43q41 0 73 2q48 2 104 7q25 0 29 -33v-11q1 -2 2 -5q2 -10 8.5 -56.5t21 -107t32.5 -127.5v-1q2 -4 3 -7v-5q0 -15 -21 -25l-7 -2q-9 -3 -17 -3q-18 0 -28 12l-11 40l-13 54q-7 27 -12 51zM266 642q16 -7 16 -28q0 -4 -1 -9q32 -17 32 -58
q0 -76 -116 -116q-47 5 -47 38v4q0 40 42 105q-14 7 -14 18q0 7 4 14q0 11 84 32zM208 494q5 0 29 15q19 12 19 33q0 5 -1 10q-10 0 -28.5 -20.5t-18.5 -37.5z" />
    <glyph glyph-name="ae" unicode="&#xe6;" horiz-adv-x="760" 
d="M120 146q-22 -36 -28 -60q-3 -8 -3 -15v-3q0 -20 18 -24q5 -2 11 -2h3q15 0 39 6q105 28 149 188q6 20 11 43q-121 -3 -200 -133zM420 272q31 -1 56 -1q100 0 101 25q-26 91 -60 91h-10q-57 0 -87 -115zM326 87q-46 -85 -139 -105q-47 -10 -80 -10h-8q-16 1 -29 4
q-35 13 -44 35q-6 15 -6 35v8q1 22 9 50q9 34 27 75q52 114 194 151q-140 -17 -161 -17h-4q-6 3 -9 3q-21 6 -22 30v9q0 6 2 12q3 13 15 16q213 5 266 12q9 2 19 2q7 0 15 -1q20 -2 27 -3q38 68 105 68q103 0 153 -197q0 -61 -164 -61q-38 0 -84 3q-8 -68 -8 -106
q0 -42 26 -57q7 -4 17 -4q30 0 89 29q81 40 155 137q12 13 24 13q8 0 17 -8q12 -13 12 -29q0 -8 -2 -17q-55 -92 -168 -154q-77 -42 -132 -42q-26 0 -47 9q-61 27 -65 110z" />
    <glyph glyph-name="ccedilla" unicode="&#xe7;" horiz-adv-x="434" 
d="M241 -8q-28 -9 -53 -14q-22 -4 -41 -4q-29 0 -50 10q-30 14 -41 46q-3 9 -5 18q-2 14 -2 31t2 37q6 53 50 126t90.5 106t81.5 42l3 1q4 0 12 1q9 2 17 2q47 0 59 -62l2 -13q1 -4 1 -10q0 -26 -25 -35q-4 -3 -9 -4h-3q-4 -1 -7 -1q-14 0 -16 15l-1 4q-9 29 -19 29h-1
q-2 1 -5 1t-7 -1h-2q-19 -5 -49 -30.5t-53.5 -60t-38.5 -79.5q-12 -35 -12 -59q0 -7 1 -14q4 -21 16 -25q12 -5 29 -5q11 0 24 2q19 3 43 13q66 22 141 101q11 7 19 9h7q9 0 18 -10q5 -8 7 -17q1 -3 1 -6t-1 -6q0 -8 -5 -16q-53 -70 -115 -109l-36 -53q53 -2 53 -37
q0 -10 -4 -23l-3 -8q-29 -64 -92 -64q-61 0 -69 36q10 28 42 28q17 -18 38 -20h2q16 0 28 19l1 5q1 2 1 4q0 12 -36 14q-39 3 -39 20q0 3 1 7q2 5 7 11z" />
    <glyph glyph-name="egrave" unicode="&#xe8;" horiz-adv-x="421" 
d="M58 199q-9 9 -9 27q5 31 34 31h8q40 61 82 91q46 33 81 42l3 1q4 0 12 1q5 1 9 1q51 0 88 -113q1 -4 1 -7t-1 -6q-2 -43 -71 -69q-75 -16 -133 -16q-19 0 -36 2q-8 -18 -14 -37q-12 -35 -12 -59q0 -8 1 -14q4 -21 16 -25q12 -5 29 -5q11 0 24 2q19 3 43 13q66 22 141 101
q11 7 19 9h7q9 0 18 -10q5 -8 7 -17q1 -3 1 -6t-1 -6q0 -8 -5 -16q-59 -78 -163 -117q-37 -13 -68 -19q-22 -4 -41 -4q-29 0 -50 10q-30 14 -41 46q-3 9 -5 18q-2 14 -2 31t2 37q4 37 26 83zM166 248q26 0 81 6q34 8 43 24q-1 2 -6 21q-6 18 -16 18h-1q-2 1 -5 1t-7 -1h-2
q-19 -5 -49 -30q-20 -18 -38 -39zM274 464l-3 -3q-10 -11 -22 -11q-8 0 -17 6l-144 117q-11 11 -11 23q0 13 12 27l5 5q12 13 24 13q10 0 20 -9l140 -119l2 -2q8 -8 8 -17q0 -13 -14 -30z" />
    <glyph glyph-name="eacute" unicode="&#xe9;" horiz-adv-x="421" 
d="M58 199q-9 9 -9 27q5 31 34 31h8q40 61 82 91q46 33 81 42l3 1q4 0 12 1q5 1 9 1q51 0 88 -113q1 -4 1 -7t-1 -6q-2 -43 -71 -69q-75 -16 -133 -16q-19 0 -36 2q-8 -18 -14 -37q-12 -35 -12 -59q0 -8 1 -14q4 -21 16 -25q12 -5 29 -5q11 0 24 2q19 3 43 13q66 22 141 101
q11 7 19 9h7q9 0 18 -10q5 -8 7 -17q1 -3 1 -6t-1 -6q0 -8 -5 -16q-59 -78 -163 -117q-37 -13 -68 -19q-22 -4 -41 -4q-29 0 -50 10q-30 14 -41 46q-3 9 -5 18q-2 14 -2 31t2 37q4 37 26 83zM166 248q26 0 81 6q34 8 43 24q-1 2 -6 21q-6 18 -16 18h-1q-2 1 -5 1t-7 -1h-2
q-19 -5 -49 -30q-20 -18 -38 -39zM148 494q0 9 8 17l2 2l140 119q10 9 20 9q12 0 24 -13l5 -5q12 -14 12 -27q0 -12 -11 -23l-144 -117q-9 -6 -17 -6q-12 0 -22 11l-3 3q-14 17 -14 30z" />
    <glyph glyph-name="ecircumflex" unicode="&#xea;" horiz-adv-x="421" 
d="M58 199q-9 9 -9 27q5 31 34 31h8q40 61 82 91q46 33 81 42l3 1q4 0 12 1q5 1 9 1q51 0 88 -113q1 -4 1 -7t-1 -6q-2 -43 -71 -69q-75 -16 -133 -16q-19 0 -36 2q-8 -18 -14 -37q-12 -35 -12 -59q0 -8 1 -14q4 -21 16 -25q12 -5 29 -5q11 0 24 2q19 3 43 13q66 22 141 101
q11 7 19 9h7q9 0 18 -10q5 -8 7 -17q1 -3 1 -6t-1 -6q0 -8 -5 -16q-59 -78 -163 -117q-37 -13 -68 -19q-22 -4 -41 -4q-29 0 -50 10q-30 14 -41 46q-3 9 -5 18q-2 14 -2 31t2 37q4 37 26 83zM166 248q26 0 81 6q34 8 43 24q-1 2 -6 21q-6 18 -16 18h-1q-2 1 -5 1t-7 -1h-2
q-19 -5 -49 -30q-20 -18 -38 -39zM222 624q28 -2 33 -23q68 -80 108 -117q4 -7 4 -12q0 -13 -18 -23q-12 -6 -21 -6q-12 0 -20 10q-45 56 -90 102q-45 -46 -90 -102q-8 -10 -20 -10q-9 0 -20 6q-19 10 -19 23q0 5 4 12q40 37 108 117q5 21 33 23h8z" />
    <glyph glyph-name="edieresis" unicode="&#xeb;" horiz-adv-x="421" 
d="M58 199q-9 9 -9 27q5 31 34 31h8q40 61 82 91q46 33 81 42l3 1q4 0 12 1q5 1 9 1q51 0 88 -113q1 -4 1 -7t-1 -6q-2 -43 -71 -69q-75 -16 -133 -16q-19 0 -36 2q-8 -18 -14 -37q-12 -35 -12 -59q0 -8 1 -14q4 -21 16 -25q12 -5 29 -5q11 0 24 2q19 3 43 13q66 22 141 101
q11 7 19 9h7q9 0 18 -10q5 -8 7 -17q1 -3 1 -6t-1 -6q0 -8 -5 -16q-59 -78 -163 -117q-37 -13 -68 -19q-22 -4 -41 -4q-29 0 -50 10q-30 14 -41 46q-3 9 -5 18q-2 14 -2 31t2 37q4 37 26 83zM166 248q26 0 81 6q34 8 43 24q-1 2 -6 21q-6 18 -16 18h-1q-2 1 -5 1t-7 -1h-2
q-19 -5 -49 -30q-20 -18 -38 -39zM150 551q37 0 45 -36v-14q0 -43 -19 -43q-15 -4 -27 -4q-30 0 -40 20q-9 16 -9 38v8q0 24 35 30q8 1 15 1zM290 551q38 0 45 -36q1 -8 1 -14q0 -43 -20 -43q-14 -4 -27 -4q-29 0 -40 20q-9 16 -9 38q0 4 1 8q0 24 34 30q8 1 15 1z" />
    <glyph glyph-name="igrave" unicode="&#xec;" horiz-adv-x="265" 
d="M81 371q37 -4 37 -41v-1q-4 -36 -4 -68q0 -73 18 -128q16 -53 45 -53q14 0 31 12q16 9 28 9q11 0 21 -9q8 -10 8 -22q0 -11 -7 -25q-28 -35 -86 -47q-8 -1 -14 -1q-50 0 -84 77q-34 76 -34 219q0 20 1 43q6 33 40 35zM209 464l-3 -3q-10 -11 -22 -11q-8 0 -17 6l-144 117
q-11 11 -11 23q0 13 12 27l5 5q12 13 24 13q10 0 20 -9l140 -119l2 -2q8 -8 8 -17q0 -13 -14 -30z" />
    <glyph glyph-name="iacute" unicode="&#xed;" horiz-adv-x="265" 
d="M81 371q37 -4 37 -41v-1q-4 -36 -4 -68q0 -73 18 -128q16 -53 45 -53q14 0 31 12q16 9 28 9q11 0 21 -9q8 -10 8 -22q0 -11 -7 -25q-28 -35 -86 -47q-8 -1 -14 -1q-50 0 -84 77q-34 76 -34 219q0 20 1 43q6 33 40 35zM82 494q0 9 8 17l2 2l140 119q10 9 20 9q12 0 24 -13
l5 -5q12 -14 12 -27q0 -12 -11 -23l-144 -117q-9 -6 -17 -6q-12 0 -22 11l-3 3q-14 17 -14 30z" />
    <glyph glyph-name="icircumflex" unicode="&#xee;" horiz-adv-x="265" 
d="M82 371q37 -4 37 -41v-1q-4 -36 -4 -68q0 -73 18 -128q16 -53 45 -53q14 0 31 12q16 9 28 9q11 0 21 -9q8 -10 8 -22q0 -11 -7 -25q-28 -35 -86 -47q-8 -1 -14 -1q-50 0 -84 77q-34 76 -34 219q0 20 1 43q6 33 40 35zM157 624q28 -2 33 -23q68 -80 108 -117q4 -7 4 -12
q0 -13 -18 -23q-12 -6 -21 -6q-12 0 -20 10q-45 56 -90 102q-45 -46 -90 -102q-8 -10 -20 -10q-9 0 -20 6q-19 10 -19 23q0 5 4 12q40 37 108 117q5 21 33 23h8z" />
    <glyph glyph-name="idieresis" unicode="&#xef;" horiz-adv-x="265" 
d="M82 371q37 -4 37 -41v-1q-4 -36 -4 -68q0 -73 18 -128q16 -53 45 -53q14 0 31 12q16 9 28 9q11 0 21 -9q8 -10 8 -22q0 -11 -7 -25q-28 -35 -86 -47q-8 -1 -14 -1q-50 0 -84 77q-34 76 -34 219q0 20 1 43q6 33 40 35zM85 551q37 0 45 -36v-14q0 -43 -19 -43
q-15 -4 -27 -4q-30 0 -40 20q-9 16 -9 38v8q0 24 35 30q8 1 15 1zM225 551q38 0 45 -36q1 -8 1 -14q0 -43 -20 -43q-14 -4 -27 -4q-29 0 -40 20q-9 16 -9 38q0 4 1 8q0 24 34 30q8 1 15 1z" />
    <glyph glyph-name="ntilde" unicode="&#xf1;" horiz-adv-x="443" 
d="M124 256l14 23q65 99 145 99h4q7 0 16 -2q77 -23 97 -131t20 -217v-2q0 -24 -33 -25h-2q-32 0 -34 30q0 70 -11 163t-44 111q-5 1 -8 2q-40 0 -93 -71.5t-62 -231.5q-2 1 -5 2v-2q-7 -15 -36 -15h-12q-25 1 -25 33v97q0 113 -28 224v1q0 26 35 27h5q32 0 36 -16
q18 -73 21 -99zM274 493l4 -1q3 0 4 3q1 2 2 7v4l1 3q0 7 3 13q4 7 12 11q5 1 8 1q5 0 11 -2q5 -5 9 -13q1 -6 1 -11v-12q-2 -11 -6 -23q-1 -4 -3 -7q-11 -24 -41 -24l-3 -1h-6q-27 3 -58 26q-29 21 -40 22q-2 1 -3 1q-3 0 -5 -3q-1 -3 -1 -7q-1 -2 -1 -5q0 -8 -3 -15
q-3 -8 -12 -12q-5 -1 -8 -1h-1q-5 0 -10 3q-6 4 -10 14v23q1 10 5 22l3 6q11 24 42 25h9q27 -2 58 -25q28 -21 39 -22z" />
    <glyph glyph-name="ograve" unicode="&#xf2;" horiz-adv-x="330" 
d="M265 323q20 -39 20 -95q0 -27 -5 -58q-2 -13 -5 -25q-21 -80 -92 -137q-14 -9 -27 -14q-22 -10 -41 -10q-8 0 -16 2q-33 9 -69 90q-12 27 -12 61q0 64 44 148q57 107 117 107q12 0 24 -4q32 -8 62 -65zM184 313h-6q-34 0 -84 -109l-4 -16q-5 -28 -5 -51q0 -31 9 -53l2 -5
q12 -24 27 -27q4 -1 8 -1q5 0 10 2q29 12 55 79q8 19 13 37q2 29 2 53q0 83 -27 91zM207 464l-3 -3q-10 -11 -22 -11q-8 0 -17 6l-144 117q-11 11 -11 23q0 13 12 27l5 5q12 13 24 13q10 0 20 -9l140 -119l2 -2q8 -8 8 -17q0 -13 -14 -30z" />
    <glyph glyph-name="oacute" unicode="&#xf3;" horiz-adv-x="330" 
d="M257 323q20 -39 20 -95q0 -27 -5 -58q-2 -13 -5 -25q-21 -80 -92 -137q-14 -9 -27 -14q-22 -10 -41 -10q-8 0 -16 2q-33 9 -69 90q-12 27 -12 61q0 64 44 148q57 107 117 107q12 0 24 -4q32 -8 62 -65zM176 313h-6q-34 0 -84 -109l-4 -16q-5 -28 -5 -51q0 -31 9 -53l2 -5
q12 -24 27 -27q4 -1 8 -1q5 0 10 2q29 12 55 79q8 19 13 37q2 29 2 53q0 83 -27 91zM73 494q0 9 8 17l2 2l140 119q10 9 20 9q12 0 24 -13l5 -5q12 -14 12 -27q0 -12 -11 -23l-144 -117q-9 -6 -17 -6q-12 0 -22 11l-3 3q-14 17 -14 30z" />
    <glyph glyph-name="ocircumflex" unicode="&#xf4;" horiz-adv-x="330" 
d="M273 323q20 -39 20 -95q0 -27 -5 -58q-2 -13 -5 -25q-21 -80 -92 -137q-14 -9 -27 -14q-22 -10 -41 -10q-8 0 -16 2q-33 9 -69 90q-12 27 -12 61q0 64 44 148q57 107 117 107q12 0 24 -4q32 -8 62 -65zM192 313h-6q-34 0 -84 -109l-4 -16q-5 -28 -5 -51q0 -31 9 -53l2 -5
q12 -24 27 -27q4 -1 8 -1q5 0 10 2q29 12 55 79q8 19 13 37q2 29 2 53q0 83 -27 91zM163 624q28 -2 33 -23q68 -80 108 -117q4 -7 4 -12q0 -13 -18 -23q-12 -6 -21 -6q-12 0 -20 10q-45 56 -90 102q-45 -46 -90 -102q-8 -10 -20 -10q-9 0 -20 6q-19 10 -19 23q0 5 4 12
q40 37 108 117q5 21 33 23h8z" />
    <glyph glyph-name="otilde" unicode="&#xf5;" horiz-adv-x="330" 
d="M257 323q20 -39 20 -95q0 -27 -5 -58q-2 -13 -5 -25q-21 -80 -92 -137q-14 -9 -27 -14q-22 -10 -41 -10q-8 0 -16 2q-33 9 -69 90q-12 27 -12 61q0 64 44 148q57 107 117 107q12 0 24 -4q32 -8 62 -65zM176 313h-6q-34 0 -84 -109l-4 -16q-5 -28 -5 -51q0 -31 9 -53l2 -5
q12 -24 27 -27q4 -1 8 -1q5 0 10 2q29 12 55 79q8 19 13 37q2 29 2 53q0 83 -27 91zM194 493l4 -1q3 0 4 3q1 2 2 7v4l1 3q0 7 3 13q4 7 12 11q5 1 8 1q5 0 11 -2q5 -5 9 -13q1 -6 1 -11v-12q-2 -11 -6 -23q-1 -4 -3 -7q-11 -24 -41 -24l-3 -1h-6q-27 3 -58 26
q-29 21 -40 22q-2 1 -3 1q-3 0 -5 -3q-1 -3 -1 -7q-1 -2 -1 -5q0 -8 -3 -15q-3 -8 -12 -12q-5 -1 -8 -1h-1q-5 0 -10 3q-6 4 -10 14v23q1 10 5 22l3 6q11 24 42 25h9q27 -2 58 -25q28 -21 39 -22z" />
    <glyph glyph-name="odieresis" unicode="&#xf6;" horiz-adv-x="330" 
d="M257 323q20 -39 20 -95q0 -27 -5 -58q-2 -13 -5 -25q-21 -80 -92 -137q-14 -9 -27 -14q-22 -10 -41 -10q-8 0 -16 2q-33 9 -69 90q-12 27 -12 61q0 64 44 148q57 107 117 107q12 0 24 -4q32 -8 62 -65zM176 313h-6q-34 0 -84 -109l-4 -16q-5 -28 -5 -51q0 -31 9 -53l2 -5
q12 -24 27 -27q4 -1 8 -1q5 0 10 2q29 12 55 79q8 19 13 37q2 29 2 53q0 83 -27 91zM75 551q37 0 45 -36v-14q0 -43 -19 -43q-15 -4 -27 -4q-30 0 -40 20q-9 16 -9 38v8q0 24 35 30q8 1 15 1zM215 551q38 0 45 -36q1 -8 1 -14q0 -43 -20 -43q-14 -4 -27 -4q-29 0 -40 20
q-9 16 -9 38q0 4 1 8q0 24 34 30q8 1 15 1z" />
    <glyph glyph-name="oslash" unicode="&#xf8;" horiz-adv-x="318" 
d="M182 305l-4 6q-9 11 -14 12q-5 0 -13 -6q-12 -9 -29 -33q-24 -37 -24 -95v-17q1 -17 4 -32zM140 59q12 -11 24 -11q9 0 17 6q25 19 34 90q3 20 3 39q0 15 -2 29l-53 -108l-23 -44v-1zM259 304q22 -45 28 -103q1 -13 1 -25q0 -83 -55 -155q-12 -13 -23 -21
q-27 -21 -53 -21q-25 0 -48 19l-30 -67q-8 -13 -20 -16q-4 -1 -9 -1q-7 0 -15 3q-4 1 -6 2q-12 7 -16 17q-1 3 -1 7q0 6 3 13q15 40 47 104q-32 58 -32 130v10q3 106 72 167q4 4 9 8q24 19 48 19q27 0 53 -24l33 80l1 3q5 10 15 12q3 1 7 1q6 0 14 -3l4 -2q14 -7 18 -19
q2 -5 2 -11v-5q-9 -37 -47 -122z" />
    <glyph glyph-name="ugrave" unicode="&#xf9;" horiz-adv-x="443" 
d="M321 109q-6 -11 -14 -22q-65 -100 -145 -100h-3q-8 0 -17 2q-76 23 -96.5 131t-20.5 209v2q0 24 33 25h2q33 0 35 -30q0 -62 11 -155t44 -111l8 -2q39 0 92 71.5t63 220.5q1 -1 4 -2v2q8 15 36 15h12q25 -1 25 -33v-86q0 -113 28 -224v-1q0 -26 -35 -27h-5q-32 0 -35 16
q-19 73 -22 99zM278 464l-3 -3q-10 -11 -22 -11q-8 0 -17 6l-144 117q-11 11 -11 23q0 13 12 27l5 5q12 13 24 13q10 0 20 -9l140 -119l2 -2q8 -8 8 -17q0 -13 -14 -30z" />
    <glyph glyph-name="uacute" unicode="&#xfa;" horiz-adv-x="443" 
d="M321 109q-6 -11 -14 -22q-65 -100 -145 -100h-3q-8 0 -17 2q-76 23 -96.5 131t-20.5 209v2q0 24 33 25h2q33 0 35 -30q0 -62 11 -155t44 -111l8 -2q39 0 92 71.5t63 220.5q1 -1 4 -2v2q8 15 36 15h12q25 -1 25 -33v-86q0 -113 28 -224v-1q0 -26 -35 -27h-5q-32 0 -35 16
q-19 73 -22 99zM151 494q0 9 8 17l2 2l140 119q10 9 20 9q12 0 24 -13l5 -5q12 -14 12 -27q0 -12 -11 -23l-144 -117q-9 -6 -17 -6q-12 0 -22 11l-3 3q-14 17 -14 30z" />
    <glyph glyph-name="ucircumflex" unicode="&#xfb;" horiz-adv-x="443" 
d="M321 109q-6 -11 -14 -22q-65 -100 -145 -100h-3q-8 0 -17 2q-76 23 -96.5 131t-20.5 209v2q0 24 33 25h2q33 0 35 -30q0 -62 11 -155t44 -111l8 -2q39 0 92 71.5t63 220.5q1 -1 4 -2v2q8 15 36 15h12q25 -1 25 -33v-86q0 -113 28 -224v-1q0 -26 -35 -27h-5q-32 0 -35 16
q-19 73 -22 99zM226 624q28 -2 33 -23q68 -80 108 -117q4 -7 4 -12q0 -13 -18 -23q-12 -6 -21 -6q-12 0 -20 10q-45 56 -90 102q-45 -46 -90 -102q-8 -10 -20 -10q-9 0 -20 6q-19 10 -19 23q0 5 4 12q40 37 108 117q5 21 33 23h8z" />
    <glyph glyph-name="udieresis" unicode="&#xfc;" horiz-adv-x="443" 
d="M321 109q-6 -11 -14 -22q-65 -100 -145 -100h-3q-8 0 -17 2q-76 23 -96.5 131t-20.5 209v2q0 24 33 25h2q33 0 35 -30q0 -62 11 -155t44 -111l8 -2q39 0 92 71.5t63 220.5q1 -1 4 -2v2q8 15 36 15h12q25 -1 25 -33v-86q0 -113 28 -224v-1q0 -26 -35 -27h-5q-32 0 -35 16
q-19 73 -22 99zM154 551q37 0 45 -36v-14q0 -43 -19 -43q-15 -4 -27 -4q-30 0 -40 20q-9 16 -9 38v8q0 24 35 30q8 1 15 1zM294 551q38 0 45 -36q1 -8 1 -14q0 -43 -20 -43q-14 -4 -27 -4q-29 0 -40 20q-9 16 -9 38q0 4 1 8q0 24 34 30q8 1 15 1z" />
    <glyph glyph-name="yacute" unicode="&#xfd;" horiz-adv-x="465" 
d="M358 176q-17 -56 -46 -99q-65 -100 -145 -100h-3q-8 0 -17 2q-76 24 -96.5 132t-20.5 231v1q0 25 33 26h2q33 0 35 -31q0 -84 11 -177t44 -110l8 -2q39 0 92 71q52 70 62 226q0 20 17 27q11 4 29 4l9 -1q24 -1 48.5 -139.5t24.5 -222.5v-3q0 -82 -19 -139
q-22 -65 -123 -72q-18 -2 -34 -2q-78 0 -128 28q-10 6 -12 21q-1 5 -1 9q0 10 3 17q5 13 18 17q5 2 11 2t13 -3q56 -19 89 -22q6 -1 12 -1q28 0 60 14q38 16 38 141v6q0 67 -14 149zM167 494q0 9 8 17l2 2l140 119q10 9 20 9q12 0 24 -13l5 -5q12 -14 12 -27q0 -12 -11 -23
l-144 -117q-9 -6 -17 -6q-12 0 -22 11l-3 3q-14 17 -14 30z" />
    <glyph glyph-name="thorn" unicode="&#xfe;" horiz-adv-x="441" 
d="M48 207q-12 190 -28 304q0 34 34 34q39 -5 41 -41q5 -89 21 -226q77 112 220 146q75 0 80 -109v-11q0 -103 -74 -198q-79 -102 -208 -128q-9 1 -16 3v-12q0 -78 -10 -130v-1q0 -42 -37 -43h-6q-30 3 -30 45v5q14 99 14 194q0 29 -1 54v45q-1 18 -1 38q0 15 1 31zM120 96
v-16q10 -17 43 -17q100 30 148 120q39 76 39 124q0 10 -1 18q-4 21 -22 21q-27 0 -84 -44q-94 -71 -123 -206z" />
    <glyph glyph-name="ydieresis" unicode="&#xff;" horiz-adv-x="465" 
d="M358 176q-17 -56 -46 -99q-65 -100 -145 -100h-3q-8 0 -17 2q-76 24 -96.5 132t-20.5 231v1q0 25 33 26h2q33 0 35 -31q0 -84 11 -177t44 -110l8 -2q39 0 92 71q52 70 62 226q0 20 17 27q11 4 29 4l9 -1q24 -1 48.5 -139.5t24.5 -222.5v-3q0 -82 -19 -139
q-22 -65 -123 -72q-18 -2 -34 -2q-78 0 -128 28q-10 6 -12 21q-1 5 -1 9q0 10 3 17q5 13 18 17q5 2 11 2t13 -3q56 -19 89 -22q6 -1 12 -1q28 0 60 14q38 16 38 141v6q0 67 -14 149zM170 551q37 0 45 -36v-14q0 -43 -19 -43q-15 -4 -27 -4q-30 0 -40 20q-9 16 -9 38v8
q0 24 35 30q8 1 15 1zM310 551q38 0 45 -36q1 -8 1 -14q0 -43 -20 -43q-14 -4 -27 -4q-29 0 -40 20q-9 16 -9 38q0 4 1 8q0 24 34 30q8 1 15 1z" />
    <glyph glyph-name="dotlessi" unicode="&#x131;" horiz-adv-x="265" 
d="M81 371q37 -4 37 -41v-1q-4 -36 -4 -68q0 -73 18 -128q16 -53 45 -53q14 0 31 12q16 9 28 9q11 0 21 -9q8 -10 8 -22q0 -11 -7 -25q-28 -35 -86 -47q-8 -1 -14 -1q-50 0 -84 77q-34 76 -34 219q0 20 1 43q6 33 40 35z" />
    <glyph glyph-name="circumflex" unicode="&#x2c6;" horiz-adv-x="398" 
d="M203 624q28 -2 33 -23q68 -80 108 -117q4 -7 4 -12q0 -13 -18 -23q-12 -6 -21 -6q-12 0 -20 10q-45 56 -90 102q-45 -46 -90 -102q-8 -10 -20 -10q-9 0 -20 6q-19 10 -19 23q0 5 4 12q40 37 108 117q5 21 33 23h8z" />
    <glyph glyph-name="caron" unicode="&#x2c7;" horiz-adv-x="398" 
d="M195 443q-28 2 -33 23q-68 80 -108 117q-4 7 -4 12q0 13 19 23q11 6 20 6q12 0 20 -10q45 -56 90 -102q45 46 90 102q8 10 20 10q9 0 21 -6q18 -10 18 -23q0 -5 -4 -12q-40 -37 -108 -117q-5 -21 -33 -23h-8z" />
    <glyph glyph-name="uni02C9" unicode="&#x2c9;" horiz-adv-x="325" 
d="M294 534q1 -6 1 -10q0 -30 -23 -37q-84 -24 -167 -24q-20 0 -40 1q-26 0 -33 32q-1 4 -1 6q-1 7 -1 14q0 27 19 33l4 2q21 -1 41 -1q97 0 168 18q3 2 6 2q20 0 26 -30v-6z" />
    <glyph glyph-name="breve" unicode="&#x2d8;" horiz-adv-x="369" 
d="M319 593q0 -125 -119 -144q-10 -1 -19 -1q-109 0 -141 118v3q0 25 29 31l2 1h6q23 0 33 -26q20 -60 74 -60h5q65 7 65 75v1q7 24 31 24q26 0 34 -22z" />
    <glyph glyph-name="dotaccent" unicode="&#x2d9;" horiz-adv-x="195" 
d="M100 551q37 0 45 -36v-14q0 -43 -19 -43q-15 -4 -27 -4q-30 0 -40 20q-9 16 -9 38v8q0 24 35 30q8 1 15 1z" />
    <glyph glyph-name="ring" unicode="&#x2da;" horiz-adv-x="263" 
d="M166 642q16 -7 16 -28q0 -4 -1 -9q32 -17 32 -58q0 -76 -116 -116q-47 5 -47 38v4q0 40 42 105q-14 7 -14 18q0 7 4 14q0 11 84 32zM108 494q5 0 29 15q19 12 19 33q0 5 -1 10q-10 0 -28.5 -20.5t-18.5 -37.5z" />
    <glyph glyph-name="ogonek" unicode="&#x2db;" horiz-adv-x="292" 
d="M189 5q-4 -5 -10 -10q-60 -33 -60 -75q0 -6 2 -12l1 -5q13 -38 48 -38q18 0 40 9l1 1h4q22 0 26 -21q1 -4 1 -9q0 -17 -16 -30q-42 -17 -74 -17q-66 0 -95 69q-2 9 -4 17q-3 14 -3 29q0 50 39 92h100z" />
    <glyph glyph-name="tilde" unicode="&#x2dc;" horiz-adv-x="311" 
d="M206 493l4 -1q3 0 4 3q1 2 2 7v4l1 3q0 7 3 13q4 7 12 11q5 1 8 1q5 0 11 -2q5 -5 9 -13q1 -6 1 -11v-12q-2 -11 -6 -23q-1 -4 -3 -7q-11 -24 -41 -24l-3 -1h-6q-27 3 -58 26q-29 21 -40 22q-2 1 -3 1q-3 0 -5 -3q-1 -3 -1 -7q-1 -2 -1 -5q0 -8 -3 -15q-3 -8 -12 -12
q-5 -1 -8 -1h-1q-5 0 -10 3q-6 4 -10 14v23q1 10 5 22l3 6q11 24 42 25h9q27 -2 58 -25q28 -21 39 -22z" />
    <glyph glyph-name="hungarumlaut" unicode="&#x2dd;" horiz-adv-x="351" 
d="M152 483l1 2l77 93q13 15 47 15h7q29 -1 29 -11q0 -3 -2 -6l-81 -94q-14 -13 -42 -13h-5q-32 2 -32 10q0 2 1 4zM37 482l1 1l65 94q9 15 44 15h7q32 -2 32 -13q0 -2 -1 -4l-69 -94q-13 -13 -41 -13h-5q-34 1 -34 10q0 2 1 4z" />
    <glyph glyph-name="quoteleft" unicode="&#x2018;" horiz-adv-x="147" 
d="M115 632q12 -14 12 -30q0 -20 -17 -43q-22 -31 -22 -82q0 -18 3 -39q2 -18 2 -31q0 -33 -16 -33q-5 0 -13 3q-34 17 -34 98v16q4 95 85 141z" />
    <glyph glyph-name="quoteright" unicode="&#x2019;" horiz-adv-x="147" 
d="M32 374q-12 14 -12 30q0 20 17 43q22 31 22 82q0 18 -3 39q-2 18 -2 31q0 33 16 33q5 0 13 -3q34 -17 34 -98v-16q-4 -95 -85 -141z" />
    <glyph glyph-name="quotesinglbase" unicode="&#x201a;" horiz-adv-x="147" 
d="M32 -129q-12 14 -12 30q0 20 17 43q22 31 22 82q0 18 -3 39q-2 18 -2 31q0 33 16 33q5 0 13 -3q34 -17 34 -98v-16q-4 -95 -85 -141z" />
    <glyph glyph-name="quotedblleft" unicode="&#x201c;" horiz-adv-x="283" 
d="M115 632q12 -14 12 -30q0 -20 -17 -43q-22 -31 -22 -82q0 -18 3 -39q2 -18 2 -31q0 -33 -16 -33q-5 0 -13 3q-34 17 -34 98v16q4 95 85 141zM251 632q12 -14 12 -30q0 -20 -17 -43q-22 -31 -22 -82q0 -18 3 -39q2 -18 2 -31q0 -33 -16 -33q-5 0 -13 3q-34 17 -34 98v16
q4 95 85 141z" />
    <glyph glyph-name="quotedblright" unicode="&#x201d;" horiz-adv-x="283" 
d="M32 374q-12 14 -12 30q0 20 17 43q22 31 22 82q0 18 -3 39q-2 18 -2 31q0 33 16 33q5 0 13 -3q34 -17 34 -98v-16q-4 -95 -85 -141zM168 374q-12 14 -12 30q0 20 17 43q22 31 22 82q0 18 -3 39q-2 18 -2 31q0 33 16 33q5 0 13 -3q34 -17 34 -98v-16q-4 -95 -85 -141z" />
    <glyph glyph-name="quotedblbase" unicode="&#x201e;" horiz-adv-x="283" 
d="M32 -129q-12 14 -12 30q0 20 17 43q22 31 22 82q0 18 -3 39q-2 18 -2 31q0 33 16 33q5 0 13 -3q34 -17 34 -98v-16q-4 -95 -85 -141zM168 -129q-12 14 -12 30q0 20 17 43q22 31 22 82q0 18 -3 39q-2 18 -2 31q0 33 16 33q5 0 13 -3q34 -17 34 -98v-16q-4 -95 -85 -141z
" />
    <glyph glyph-name="ellipsis" unicode="&#x2026;" horiz-adv-x="2048" 
d="M63 79q32 0 39 -37q1 -8 1 -16q0 -43 -15 -43q-15 -5 -26 -5q-25 0 -33 19q-9 19 -9 42v9q0 25 30 30q7 1 13 1zM396 79q32 0 39 -37q1 -8 1 -16q0 -43 -15 -43q-15 -5 -26 -5q-25 0 -33 19q-9 19 -9 42v9q0 25 30 30q7 1 13 1zM729 79q32 0 39 -37q1 -8 1 -16
q0 -43 -15 -43q-15 -5 -26 -5q-25 0 -33 19q-9 19 -9 42v9q0 25 30 30q7 1 13 1z" />
    <glyph glyph-name="guilsinglleft" unicode="&#x2039;" horiz-adv-x="299" 
d="M57 229l129 145q18 24 38 24q7 0 14 -3q21 -8 21 -28q0 -9 -3 -18l-133 -152l131 -147q3 -10 3 -19q0 -20 -21 -28q-7 -3 -14 -3q-21 0 -39 24l-131 149q-12 14 -12 27t13 26q2 1 4 3z" />
    <glyph glyph-name="guilsinglright" unicode="&#x203a;" horiz-adv-x="299" 
d="M246 226q13 -13 13 -26t-12 -27l-131 -149q-18 -24 -39 -24q-7 0 -14 3q-21 8 -21 28q0 9 3 19l131 147l-133 152q-3 9 -3 18q0 20 21 28q7 3 14 3q20 0 38 -24l129 -145q2 -2 4 -3z" />
    <glyph glyph-name="Euro" unicode="&#x20ac;" horiz-adv-x="550" 
d="M127 450q4 30 10 62q25 98 80 179q48 72 108 76q3 1 6 1t6 -1q80 -14 90.5 -75.5t14.5 -94.5v-11q0 -21 -10 -32q-8 -8 -17 -9h-3q-3 1 -6 1q-14 5 -19 17q-7 27 -10 67q-1 9 -1 18v4q-4 40 -41 40h-1q-3 0 -8 -1q-43 -2 -77 -64q-38 -67 -55 -139q-4 -20 -7 -38
q89 1 196 12l4 -1q25 -3 25 -24q0 -4 -2 -10q0 -2 -1 -5q-8 -24 -43 -27q-85 -10 -171 -10h-15q-3 -28 -4 -51q89 1 196 14l5 -1q24 -3 24 -25q0 -5 -2 -11q0 -2 -1 -5q-7 -26 -43 -29q-90 -12 -181 -12q1 -16 2 -30q4 -40 14 -73q28 -97 121 -105h23q73 5 106 85
q19 47 25 113q3 24 26 26h8q27 -2 30 -31q-6 -96 -37 -161q-44 -91 -144 -99h-17q-12 0 -24 1q-131 10 -173 127q-17 44 -21 100q-2 21 -2 44v4l-61 4q-30 4 -30 27q0 4 1 9l1 5q8 25 37 25h1q25 -1 53 -2q2 24 5 52q-28 2 -56 5q-31 3 -31 25q0 4 1 8l1 5q7 24 35 24h3
q26 -2 56 -3z" />
    <glyph glyph-name="trademark" unicode="&#x2122;" horiz-adv-x="600" 
d="M215 709q-30 1 -58 1h-16q-3 -52 -3 -98v-14q1 -83 8 -145v-2q0 -12 -14 -15h-5q-11 0 -14 11q-7 78 -8 159v20q0 41 1 82q-17 1 -32 1q-9 0 -18 -1h-9q-14 0 -16 2q-1 2 -1 3v3q0 6 2 13q4 9 12 10q25 0 73 5q7 6 14 7h2q7 0 13 -8h25q70 0 71 -13v-1q4 -2 6 -7v-96
q35 108 83 125q41 -22 65 -127q36 111 93 120q66 -54 81 -300q0 -13 -16 -13h-1q-11 0 -15 13q-8 187 -56 268q-56 -41 -68 -176v-77q-6 -13 -16 -13q-2 0 -3 1q-12 2 -13 12v42q-20 178 -58 216q-67 -101 -76 -225v-53q-6 -12 -18 -12h-2q-15 3 -15 21q2 71 2 144v117z" />
    <glyph glyph-name="uniF001" unicode="&#xf001;" horiz-adv-x="576" 
d="M68 275q-25 3 -51 7q-14 3 -14 27v9q3 32 23 32l38 -4v33q0 135 14 217v3q14 85 44 141t80 56q7 0 15 -1l7 -1q57 -10 78 -39q1 -7 1 -13q0 -7 -1 -13q-2 -11 -9 -19q-9 -9 -21 -9h-4l-6 2q-21 14 -38 17q-4 1 -8 1q-11 0 -20 -5q-23 -10 -45 -140l-1 -6
q-11 -64 -11 -144q0 -40 3 -84q55 0 128 4h1q4 2 8 2h1q19 0 27 -26l1 -6v-7q0 -24 -17 -34q-22 -2 -44 -3q-38 -3 -78 -3h-19q7 -48 18 -107q13 -61 30 -133l1 -1q2 -4 2 -7q1 -3 1 -7q0 -16 -21 -26l-6 -2q-9 -2 -17 -2q-17 0 -27 12l-10 43l-13 58q-13 60 -22 113
q-12 14 -18 65zM430 542q22 -7 23 -32q0 -6 -3 -14q-64 -63 -85 -63q-4 0 -6 2q-22 10 -23 35q0 5 3 11q60 62 86 62q3 0 5 -1zM392 371q37 -4 37 -41v-1q-4 -36 -4 -68q0 -73 18 -128q16 -53 45 -53q14 0 31 12q16 9 28 9q11 0 21 -9q8 -10 8 -22q0 -11 -7 -25
q-28 -35 -86 -47q-8 -1 -14 -1q-50 0 -84 77q-34 76 -34 219q0 20 1 43q6 33 40 35z" />
    <glyph glyph-name="uniF001" unicode="&#xfb01;" horiz-adv-x="576" 
d="M68 275q-25 3 -51 7q-14 3 -14 27v9q3 32 23 32l38 -4v33q0 135 14 217v3q14 85 44 141t80 56q7 0 15 -1l7 -1q57 -10 78 -39q1 -7 1 -13q0 -7 -1 -13q-2 -11 -9 -19q-9 -9 -21 -9h-4l-6 2q-21 14 -38 17q-4 1 -8 1q-11 0 -20 -5q-23 -10 -45 -140l-1 -6
q-11 -64 -11 -144q0 -40 3 -84q55 0 128 4h1q4 2 8 2h1q19 0 27 -26l1 -6v-7q0 -24 -17 -34q-22 -2 -44 -3q-38 -3 -78 -3h-19q7 -48 18 -107q13 -61 30 -133l1 -1q2 -4 2 -7q1 -3 1 -7q0 -16 -21 -26l-6 -2q-9 -2 -17 -2q-17 0 -27 12l-10 43l-13 58q-13 60 -22 113
q-12 14 -18 65zM430 542q22 -7 23 -32q0 -6 -3 -14q-64 -63 -85 -63q-4 0 -6 2q-22 10 -23 35q0 5 3 11q60 62 86 62q3 0 5 -1zM392 371q37 -4 37 -41v-1q-4 -36 -4 -68q0 -73 18 -128q16 -53 45 -53q14 0 31 12q16 9 28 9q11 0 21 -9q8 -10 8 -22q0 -11 -7 -25
q-28 -35 -86 -47q-8 -1 -14 -1q-50 0 -84 77q-34 76 -34 219q0 20 1 43q6 33 40 35z" />
    <glyph glyph-name="uniF002" unicode="&#xf002;" horiz-adv-x="575" 
d="M68 275q-25 3 -51 7q-14 3 -14 27v9q3 32 23 32l38 -4v33q0 135 14 217v3q14 85 44 141t80 56q7 0 15 -1l7 -1q57 -10 78 -39q1 -7 1 -13q0 -7 -1 -13q-2 -11 -9 -19q-9 -9 -21 -9h-4l-6 2q-21 14 -38 17q-4 1 -8 1q-11 0 -20 -5q-23 -10 -45 -140l-1 -6
q-11 -64 -11 -144q0 -40 3 -84q55 0 128 4h1q4 2 8 2h1q19 0 27 -26l1 -6v-7q0 -24 -17 -34q-22 -2 -44 -3q-38 -3 -78 -3h-19q7 -48 18 -107q13 -61 30 -133l1 -1q2 -4 2 -7q1 -3 1 -7q0 -16 -21 -26l-6 -2q-9 -2 -17 -2q-17 0 -27 12l-10 43l-13 58q-13 60 -22 113
q-12 14 -18 65zM419 273h2q10 -85 28 -140q16 -53 45 -53q14 0 31 12q17 9 28 9t21 -9q9 -10 9 -22q0 -11 -8 -25q-28 -35 -86 -47q-8 -1 -13 -1q-51 0 -84 77q-29 63 -38 172q-19 131 -19 319v114q0 29 1 59q10 28 39 28h6q26 -7 26 -34q0 -5 -1 -11v-1q-2 -98 -2 -180
q2 -165 15 -267z" />
    <glyph glyph-name="uniF002" unicode="&#xfb02;" horiz-adv-x="575" 
d="M68 275q-25 3 -51 7q-14 3 -14 27v9q3 32 23 32l38 -4v33q0 135 14 217v3q14 85 44 141t80 56q7 0 15 -1l7 -1q57 -10 78 -39q1 -7 1 -13q0 -7 -1 -13q-2 -11 -9 -19q-9 -9 -21 -9h-4l-6 2q-21 14 -38 17q-4 1 -8 1q-11 0 -20 -5q-23 -10 -45 -140l-1 -6
q-11 -64 -11 -144q0 -40 3 -84q55 0 128 4h1q4 2 8 2h1q19 0 27 -26l1 -6v-7q0 -24 -17 -34q-22 -2 -44 -3q-38 -3 -78 -3h-19q7 -48 18 -107q13 -61 30 -133l1 -1q2 -4 2 -7q1 -3 1 -7q0 -16 -21 -26l-6 -2q-9 -2 -17 -2q-17 0 -27 12l-10 43l-13 58q-13 60 -22 113
q-12 14 -18 65zM419 273h2q10 -85 28 -140q16 -53 45 -53q14 0 31 12q17 9 28 9t21 -9q9 -10 9 -22q0 -11 -8 -25q-28 -35 -86 -47q-8 -1 -13 -1q-51 0 -84 77q-29 63 -38 172q-19 131 -19 319v114q0 29 1 59q10 28 39 28h6q26 -7 26 -34q0 -5 -1 -11v-1q-2 -98 -2 -180
q2 -165 15 -267z" />
    <glyph glyph-name="copyright" unicode="&#xa9;" horiz-adv-x="1258" 
d="M703 450h8q63 -12 63 -63q23 6 23 12v13l-2 18l2 2h3q10 -3 10 -22q0 -37 -63 -41q-16 0 -19 -34l-2 -2h-2q-5 0 -11 17q-13 0 -102 -35l-15 -2l20 -103h3q58 28 71 28q17 0 34 -66q33 -20 61 -20q38 5 38 15v8h-3q0 -8 -12 -15l-8 7v5q0 14 20 26q4 10 8 10h13l33 -33h2
v8q0 14 21 27q26 54 68 54h6l5 -5v-7q0 -21 -46 -57q41 -40 41 -114v-3q-8 -12 -18 -12q-40 20 -62 66q-9 0 -9 10q-25 38 -46 56l-8 -8l8 -20q0 -24 -54 -31q-21 0 -61 21v-3l3 -15v-36l-5 -5q-10 0 -14 36l3 43q-10 45 -18 46q-19 0 -71 -31l11 -122v-18q0 -13 -11 -17
l-3 2h-2l2 18v23q-5 88 -9 109q-85 -28 -88 -35q-17 -22 -38 -26q6 -23 13 -25h39l55 5l3 -3v-2q0 -10 -56 -13h-38q10 -25 10 -51q-10 -51 -64 -51h-22q-60 10 -90 41q-23 29 -23 48q0 86 186 117h16q16 0 17 -20q27 5 77 31l-18 104q-33 -3 -33 -13q0 -14 -15 -22h-5
l-18 4q-31 -43 -72 -43h-15q-13 0 -23 8q-9 -28 -28 -28h-2q-11 0 -23 15h-3q0 -21 -33 -38l-10 2q-30 -31 -46 -31q-11 0 -16 11v5q0 30 31 76h5l3 -2h3q-30 -53 -31 -74l2 -2h3q14 0 35 25l-5 21v25l5 5h6q6 0 10 -21v-27h5q17 7 33 50h5l13 -25l8 -5q17 0 23 41h5
q3 0 12 -18h36q26 0 59 41l2 2h3q8 0 18 -8q9 4 9 23q-20 10 -20 34q4 9 8 9h5q10 0 18 -32h2q73 10 120 35q19 8 41 8l3 -3h2l5 15h-2q-30 0 -49 46l-16 -5l-9 8v3q27 25 53 25zM685 435q0 -51 56 -51h15l6 5v3q0 37 -49 45h-15zM1024 379q15 -3 15 -8t-30 -7v-6
q0 -8 51 -86h5q96 55 191 89l2 -3v-5q0 -6 -104 -46q-36 -22 -84 -43v-8q44 -68 44 -104q-12 -10 -21 -10h-5q-103 15 -112 56q0 28 73 66v5q-50 72 -50 84v8q0 18 25 18zM235 369h5l4 -5v-6q0 -22 -17 -58q-6 -87 -21 -140h3q51 -7 51 -16l-5 -5l-43 8h-11
q-23 -75 -71 -102q-17 -10 -30 -10h-21q-43 0 -53 56v5q0 41 94 64l63 2h8q13 0 23 133q-50 -41 -148 -41h-17q-39 0 -49 15l5 6l31 -8h48q84 0 133 46q7 56 18 56zM988 203v-2q0 -32 97 -46h15q0 29 -40 99q-29 0 -72 -51zM909 208h8q23 0 46 38v6q-33 0 -54 -42v-2z
M905 198l-6 -15v-3q0 -80 59 -102v13q-9 95 -53 107zM438 175v-5q8 0 23 -18l56 20l-2 11h-11zM321 86v-11q0 -37 66 -66l34 -7h30q36 0 43 38v3q0 53 -25 53q-30 10 -46 28v5l5 6h30v4h-12l-5 5v5h5q0 5 -18 15h-7q-100 -28 -100 -78zM469 139h5v-2q25 11 25 15h-2
q-28 -8 -28 -13zM38 83q11 -38 48 -38q71 0 103 104h-18q-114 0 -133 -51v-15zM443 121v-2l33 -13v3l-7 15z" />
    </font>
</defs>
</svg>
